<svg width="220.03mm" height="181.02mm" viewBox="0 0 220.03 181.02" xmlns="http://www.w3.org/2000/svg" version="1.1" preserveAspectRatio="xMidYMid meet"><g id="svgGroup" stroke-linecap="round" fill-rule="evenodd" font-size="9pt" stroke="#000" stroke-width="0.25mm" fill="none" style="stroke:#000;stroke-width:0.25mm;fill:none"><path d="M 10.26 181.017 L 10.26 178.02 L 16.25 178.02 L 16.25 181.017 L 16.253 181.02 L 22.257 181.02 L 22.26 181.017 L 22.26 178.02 L 28.25 178.02 L 28.25 181.017 L 28.253 181.02 L 34.257 181.02 L 34.26 181.017 L 34.26 178.02 L 40.25 178.02 L 40.25 181.017 L 40.253 181.02 L 46.257 181.02 L 46.26 181.017 L 46.26 178.02 L 52.25 178.02 L 52.25 181.017 L 52.253 181.02 L 62.507 181.02 L 62.51 181.017 L 62.51 173.013 L 62.507 173.01 L 59.51 173.01 L 59.51 167.02 L 62.507 167.02 L 62.51 167.017 L 62.51 161.013 L 62.507 161.01 L 59.51 161.01 L 59.51 155.02 L 62.507 155.02 L 62.51 155.017 L 62.51 147.013 L 62.507 147.01 L 52.253 147.01 L 52.25 147.013 L 52.25 150.01 L 46.26 150.01 L 46.26 147.013 L 46.257 147.01 L 40.253 147.01 L 40.25 147.013 L 40.25 150.01 L 34.26 150.01 L 34.26 147.013 L 34.257 147.01 L 28.253 147.01 L 28.25 147.013 L 28.25 150.01 L 22.26 150.01 L 22.26 147.013 L 22.257 147.01 L 16.253 147.01 L 16.25 147.013 L 16.25 150.01 L 10.26 150.01 L 10.26 147.013 L 10.257 147.01 L 0.003 147.01 L 0 147.013 L 0 155.017 L 0.003 155.02 L 3 155.02 L 3 161.01 L 0.003 161.01 L 0 161.013 L 0 167.017 L 0.003 167.02 L 3 167.02 L 3 173.01 L 0.003 173.01 L 0 173.013 L 0 181.017 L 0.003 181.02 L 10.257 181.02 L 10.26 181.017 Z" id="front_outsideCutPath" stroke="#FF0000" stroke-width="0.1" style="stroke:#FF0000;stroke-width:0.1" vector-effect="non-scaling-stroke"/><path d="M 36.212 166.584 L 35.661 166.584 L 35.661 164.229 Q 35.661 163.945 35.578 163.754 A 0.656 0.656 0 0 0 35.458 163.565 A 0.622 0.622 0 0 0 35.203 163.402 Q 35.103 163.367 34.98 163.354 A 1.462 1.462 0 0 0 34.824 163.346 A 1.669 1.669 0 0 0 34.511 163.373 Q 34.174 163.437 33.987 163.655 Q 33.744 163.937 33.723 164.554 A 3.532 3.532 0 0 0 33.721 164.674 L 33.721 166.584 L 33.17 166.584 L 33.17 162.944 L 33.618 162.944 L 33.708 163.442 L 33.734 163.442 A 1.116 1.116 0 0 1 34.172 163.044 A 1.343 1.343 0 0 1 34.209 163.025 A 1.493 1.493 0 0 1 34.741 162.883 A 1.805 1.805 0 0 1 34.89 162.877 A 2.177 2.177 0 0 1 35.261 162.907 Q 35.461 162.941 35.619 163.017 A 0.991 0.991 0 0 1 35.88 163.195 Q 36.133 163.436 36.193 163.897 A 2.406 2.406 0 0 1 36.212 164.209 L 36.212 166.584 Z M 25.62 162.944 L 25.62 163.372 L 24.694 163.372 L 24.694 166.584 L 24.142 166.584 L 24.142 163.372 L 23.491 163.372 L 23.491 163.123 L 24.142 162.924 L 24.142 162.721 Q 24.142 161.563 25.016 161.405 A 1.676 1.676 0 0 1 25.315 161.379 A 1.775 1.775 0 0 1 25.566 161.399 Q 25.762 161.427 25.992 161.496 L 25.85 161.937 Q 25.531 161.835 25.305 161.835 A 0.744 0.744 0 0 0 25.126 161.855 A 0.477 0.477 0 0 0 24.843 162.042 A 0.638 0.638 0 0 0 24.759 162.212 Q 24.694 162.405 24.694 162.708 L 24.694 162.944 L 25.62 162.944 Z M 39.019 166.129 L 39.019 166.551 A 0.542 0.542 0 0 1 38.954 166.576 Q 38.874 166.603 38.754 166.622 Q 38.592 166.648 38.459 166.65 A 1.414 1.414 0 0 1 38.441 166.65 Q 37.598 166.65 37.428 165.943 A 1.733 1.733 0 0 1 37.384 165.538 L 37.384 163.372 L 36.863 163.372 L 36.863 163.107 L 37.384 162.877 L 37.617 162.1 L 37.936 162.1 L 37.936 162.944 L 38.992 162.944 L 38.992 163.372 L 37.936 163.372 L 37.936 165.514 A 1.11 1.11 0 0 0 37.952 165.709 Q 37.986 165.9 38.092 166.019 Q 38.248 166.195 38.52 166.195 A 1.811 1.811 0 0 0 38.786 166.176 A 1.668 1.668 0 0 0 38.803 166.174 A 2.983 2.983 0 0 0 38.882 166.16 Q 38.964 166.145 39.019 166.129 Z M 28.38 162.917 L 28.304 163.429 A 2.43 2.43 0 0 0 28.129 163.396 Q 28.042 163.384 27.965 163.38 A 1.293 1.293 0 0 0 27.905 163.379 A 0.955 0.955 0 0 0 27.2 163.684 A 1.307 1.307 0 0 0 27.15 163.738 Q 26.836 164.096 26.836 164.631 L 26.836 166.584 L 26.285 166.584 L 26.285 162.944 L 26.74 162.944 L 26.803 163.618 L 26.829 163.618 A 1.862 1.862 0 0 1 27.038 163.321 A 1.422 1.422 0 0 1 27.318 163.07 A 1.099 1.099 0 0 1 27.945 162.877 A 2.531 2.531 0 0 1 28.172 162.887 A 1.847 1.847 0 0 1 28.38 162.917 Z M 32.203 164.761 Q 32.203 165.651 31.755 166.151 A 1.47 1.47 0 0 1 30.89 166.619 A 2.141 2.141 0 0 1 30.516 166.65 A 1.77 1.77 0 0 1 30.002 166.578 A 1.535 1.535 0 0 1 29.649 166.421 A 1.493 1.493 0 0 1 29.105 165.842 A 1.812 1.812 0 0 1 29.065 165.764 A 2.04 2.04 0 0 1 28.893 165.207 A 2.758 2.758 0 0 1 28.859 164.761 A 2.863 2.863 0 0 1 28.909 164.207 Q 28.973 163.885 29.117 163.633 A 1.523 1.523 0 0 1 29.304 163.374 Q 29.749 162.877 30.539 162.877 A 1.853 1.853 0 0 1 31.083 162.953 A 1.443 1.443 0 0 1 31.753 163.386 A 1.717 1.717 0 0 1 32.128 164.113 Q 32.194 164.37 32.202 164.673 A 3.236 3.236 0 0 1 32.203 164.761 Z M 29.43 164.761 A 2.792 2.792 0 0 0 29.457 165.159 Q 29.486 165.362 29.547 165.526 A 1.157 1.157 0 0 0 29.709 165.823 A 0.904 0.904 0 0 0 30.297 166.17 A 1.369 1.369 0 0 0 30.529 166.189 A 1.281 1.281 0 0 0 30.867 166.147 A 0.891 0.891 0 0 0 31.351 165.825 Q 31.632 165.461 31.632 164.761 Q 31.632 164.315 31.516 164.007 A 1.135 1.135 0 0 0 31.351 163.706 A 0.907 0.907 0 0 0 30.787 163.37 A 1.391 1.391 0 0 0 30.523 163.346 A 1.312 1.312 0 0 0 30.196 163.384 A 0.878 0.878 0 0 0 29.706 163.701 Q 29.507 163.957 29.452 164.393 A 2.913 2.913 0 0 0 29.43 164.761 Z" id="front_labelLayer" stroke="#777777" fill="#777777" style="stroke:#777777;fill:#777777" vector-effect="non-scaling-stroke"/><path d="M 71.02 181.017 L 71.02 178.02 L 77.01 178.02 L 77.01 181.017 L 77.013 181.02 L 83.017 181.02 L 83.02 181.017 L 83.02 178.02 L 89.01 178.02 L 89.01 181.017 L 89.013 181.02 L 95.017 181.02 L 95.02 181.017 L 95.02 178.02 L 101.01 178.02 L 101.01 181.017 L 101.013 181.02 L 107.017 181.02 L 107.02 181.017 L 107.02 178.02 L 113.01 178.02 L 113.01 181.017 L 113.013 181.02 L 119.017 181.02 L 119.02 181.017 L 119.02 178.02 L 125.01 178.02 L 125.01 181.017 L 125.013 181.02 L 131.017 181.02 L 131.02 181.017 L 131.02 178.02 L 137.01 178.02 L 137.01 181.017 L 137.013 181.02 L 143.017 181.02 L 143.02 181.017 L 143.02 178.02 L 149.01 178.02 L 149.01 181.017 L 149.013 181.02 L 151.517 181.02 L 151.52 181.017 L 151.52 173.02 L 154.517 173.02 L 154.52 173.017 L 154.52 167.013 L 154.517 167.01 L 151.52 167.01 L 151.52 161.02 L 154.517 161.02 L 154.52 161.017 L 154.52 155.013 L 154.517 155.01 L 151.52 155.01 L 151.52 147.013 L 151.517 147.01 L 149.013 147.01 L 149.01 147.013 L 149.01 150.01 L 143.02 150.01 L 143.02 147.013 L 143.017 147.01 L 137.013 147.01 L 137.01 147.013 L 137.01 150.01 L 131.02 150.01 L 131.02 147.013 L 131.017 147.01 L 125.013 147.01 L 125.01 147.013 L 125.01 150.01 L 119.02 150.01 L 119.02 147.013 L 119.017 147.01 L 113.013 147.01 L 113.01 147.013 L 113.01 150.01 L 107.02 150.01 L 107.02 147.013 L 107.017 147.01 L 101.013 147.01 L 101.01 147.013 L 101.01 150.01 L 95.02 150.01 L 95.02 147.013 L 95.017 147.01 L 89.013 147.01 L 89.01 147.013 L 89.01 150.01 L 83.02 150.01 L 83.02 147.013 L 83.017 147.01 L 77.013 147.01 L 77.01 147.013 L 77.01 150.01 L 71.02 150.01 L 71.02 147.013 L 71.017 147.01 L 68.513 147.01 L 68.51 147.013 L 68.51 155.01 L 65.513 155.01 L 65.51 155.013 L 65.51 161.017 L 65.513 161.02 L 68.51 161.02 L 68.51 167.01 L 65.513 167.01 L 65.51 167.013 L 65.51 173.017 L 65.513 173.02 L 68.51 173.02 L 68.51 181.017 L 68.513 181.02 L 71.017 181.02 L 71.02 181.017 Z" id="left_outsideCutPath" stroke="#FF0000" stroke-width="0.1" style="stroke:#FF0000;stroke-width:0.1" vector-effect="non-scaling-stroke"/><path d="M 112.435 162.944 L 112.435 163.372 L 111.508 163.372 L 111.508 166.584 L 110.957 166.584 L 110.957 163.372 L 110.306 163.372 L 110.306 163.123 L 110.957 162.924 L 110.957 162.721 Q 110.957 161.563 111.83 161.405 A 1.676 1.676 0 0 1 112.129 161.379 A 1.775 1.775 0 0 1 112.38 161.399 Q 112.576 161.427 112.807 161.496 L 112.664 161.937 Q 112.345 161.835 112.119 161.835 A 0.744 0.744 0 0 0 111.94 161.855 A 0.477 0.477 0 0 0 111.657 162.042 A 0.638 0.638 0 0 0 111.573 162.212 Q 111.508 162.405 111.508 162.708 L 111.508 162.944 L 112.435 162.944 Z M 109.854 164.515 L 109.854 164.864 L 107.346 164.864 Q 107.358 165.301 107.505 165.595 A 1.035 1.035 0 0 0 107.67 165.837 Q 107.977 166.169 108.535 166.169 A 2.912 2.912 0 0 0 109.626 165.953 A 3.337 3.337 0 0 0 109.698 165.923 L 109.698 166.415 A 3.31 3.31 0 0 1 109.396 166.529 A 2.531 2.531 0 0 1 109.145 166.596 A 2.314 2.314 0 0 1 108.915 166.631 Q 108.734 166.65 108.515 166.65 Q 107.708 166.65 107.242 166.159 A 1.623 1.623 0 0 1 106.854 165.446 Q 106.786 165.193 106.777 164.893 A 3.149 3.149 0 0 1 106.775 164.794 A 2.895 2.895 0 0 1 106.829 164.22 Q 106.899 163.871 107.063 163.599 A 1.633 1.633 0 0 1 107.209 163.396 A 1.413 1.413 0 0 1 108.238 162.882 A 1.949 1.949 0 0 1 108.373 162.877 Q 109.057 162.877 109.455 163.327 A 1.542 1.542 0 0 1 109.805 164.032 A 2.244 2.244 0 0 1 109.854 164.515 Z M 114.773 166.129 L 114.773 166.551 A 0.542 0.542 0 0 1 114.708 166.576 Q 114.629 166.603 114.509 166.622 Q 114.346 166.648 114.214 166.65 A 1.414 1.414 0 0 1 114.195 166.65 Q 113.352 166.65 113.182 165.943 A 1.733 1.733 0 0 1 113.139 165.538 L 113.139 163.372 L 112.617 163.372 L 112.617 163.107 L 113.139 162.877 L 113.371 162.1 L 113.69 162.1 L 113.69 162.944 L 114.746 162.944 L 114.746 163.372 L 113.69 163.372 L 113.69 165.514 A 1.11 1.11 0 0 0 113.706 165.709 Q 113.74 165.9 113.846 166.019 Q 114.002 166.195 114.275 166.195 A 1.811 1.811 0 0 0 114.54 166.176 A 1.668 1.668 0 0 0 114.557 166.174 A 2.983 2.983 0 0 0 114.636 166.16 Q 114.718 166.145 114.773 166.129 Z M 105.809 161.416 L 105.809 166.584 L 105.257 166.584 L 105.257 161.416 L 105.809 161.416 Z M 107.36 164.415 L 109.263 164.415 A 1.879 1.879 0 0 0 109.24 164.113 Q 109.19 163.807 109.03 163.616 A 0.755 0.755 0 0 0 108.575 163.357 A 1.133 1.133 0 0 0 108.366 163.339 A 1.087 1.087 0 0 0 108.052 163.382 A 0.84 0.84 0 0 0 107.667 163.625 Q 107.431 163.883 107.37 164.321 A 2.083 2.083 0 0 0 107.36 164.415 Z" id="left_labelLayer" stroke="#777777" fill="#777777" style="stroke:#777777;fill:#777777" vector-effect="non-scaling-stroke"/><path d="M 173.78 181.017 L 173.78 178.02 L 179.77 178.02 L 179.77 181.017 L 179.773 181.02 L 185.777 181.02 L 185.78 181.017 L 185.78 178.02 L 191.77 178.02 L 191.77 181.017 L 191.773 181.02 L 197.777 181.02 L 197.78 181.017 L 197.78 178.02 L 203.77 178.02 L 203.77 181.017 L 203.773 181.02 L 209.777 181.02 L 209.78 181.017 L 209.78 178.02 L 217.027 178.02 L 217.03 178.017 L 217.03 175.52 L 220.027 175.52 L 220.03 175.517 L 220.03 169.513 L 220.027 169.51 L 217.03 169.51 L 217.03 163.52 L 220.027 163.52 L 220.03 163.517 L 220.03 157.513 L 220.027 157.51 L 217.03 157.51 L 217.03 151.52 L 220.027 151.52 L 220.03 151.517 L 220.03 145.513 L 220.027 145.51 L 217.03 145.51 L 217.03 139.52 L 220.027 139.52 L 220.03 139.517 L 220.03 133.513 L 220.027 133.51 L 217.03 133.51 L 217.03 127.52 L 220.027 127.52 L 220.03 127.517 L 220.03 121.513 L 220.027 121.51 L 217.03 121.51 L 217.03 115.52 L 220.027 115.52 L 220.03 115.517 L 220.03 109.513 L 220.027 109.51 L 217.03 109.51 L 217.03 103.52 L 220.027 103.52 L 220.03 103.517 L 220.03 97.513 L 220.027 97.51 L 217.03 97.51 L 217.03 95.013 L 217.027 95.01 L 209.78 95.01 L 209.78 92.013 L 209.777 92.01 L 203.773 92.01 L 203.77 92.013 L 203.77 95.01 L 197.78 95.01 L 197.78 92.013 L 197.777 92.01 L 191.773 92.01 L 191.77 92.013 L 191.77 95.01 L 185.78 95.01 L 185.78 92.013 L 185.777 92.01 L 179.773 92.01 L 179.77 92.013 L 179.77 95.01 L 173.78 95.01 L 173.78 92.013 L 173.777 92.01 L 167.773 92.01 L 167.77 92.013 L 167.77 95.01 L 160.523 95.01 L 160.52 95.013 L 160.52 97.51 L 157.523 97.51 L 157.52 97.513 L 157.52 103.517 L 157.523 103.52 L 160.52 103.52 L 160.52 109.51 L 157.523 109.51 L 157.52 109.513 L 157.52 115.517 L 157.523 115.52 L 160.52 115.52 L 160.52 121.51 L 157.523 121.51 L 157.52 121.513 L 157.52 127.517 L 157.523 127.52 L 160.52 127.52 L 160.52 133.51 L 157.523 133.51 L 157.52 133.513 L 157.52 139.517 L 157.523 139.52 L 160.52 139.52 L 160.52 145.51 L 157.523 145.51 L 157.52 145.513 L 157.52 151.517 L 157.523 151.52 L 160.52 151.52 L 160.52 157.51 L 157.523 157.51 L 157.52 157.513 L 157.52 163.517 L 157.523 163.52 L 160.52 163.52 L 160.52 169.51 L 157.523 169.51 L 157.52 169.513 L 157.52 175.517 L 157.523 175.52 L 160.52 175.52 L 160.52 178.017 L 160.523 178.02 L 167.77 178.02 L 167.77 181.017 L 167.773 181.02 L 173.777 181.02 L 173.78 181.017 Z" id="top_outsideCutPath" stroke="#FF0000" stroke-width="0.1" style="stroke:#FF0000;stroke-width:0.1" vector-effect="non-scaling-stroke"/><path d="M 193.268 138.273 L 193.195 138.273 Q 193.268 138.859 193.268 139.384 L 193.268 142.137 L 192.255 142.137 L 192.255 132.443 L 193.079 132.443 L 193.219 133.359 L 193.268 133.359 A 2.728 2.728 0 0 1 193.662 132.911 A 2.109 2.109 0 0 1 194.177 132.565 Q 194.696 132.321 195.368 132.321 A 3.106 3.106 0 0 1 196.245 132.439 A 2.296 2.296 0 0 1 197.422 133.231 A 3.043 3.043 0 0 1 197.941 134.244 Q 198.075 134.681 198.121 135.207 A 6.599 6.599 0 0 1 198.145 135.782 A 5.941 5.941 0 0 1 198.067 136.782 Q 197.976 137.315 197.779 137.742 A 2.848 2.848 0 0 1 197.41 138.343 A 2.399 2.399 0 0 1 195.705 139.24 A 3.437 3.437 0 0 1 195.368 139.256 A 3.074 3.074 0 0 1 194.595 139.162 A 2.674 2.674 0 0 1 194.174 139.015 Q 193.634 138.774 193.268 138.273 Z M 183.366 138.298 L 183.366 139.073 A 0.997 0.997 0 0 1 183.248 139.12 Q 183.122 139.162 182.942 139.194 A 3.789 3.789 0 0 1 182.881 139.204 A 4.392 4.392 0 0 1 182.595 139.241 Q 182.44 139.256 182.304 139.256 A 2.647 2.647 0 0 1 181.524 139.151 Q 180.667 138.886 180.443 137.955 A 3.185 3.185 0 0 1 180.363 137.211 L 180.363 133.231 L 179.405 133.231 L 179.405 132.742 L 180.363 132.321 L 180.79 130.893 L 181.376 130.893 L 181.376 132.443 L 183.318 132.443 L 183.318 133.231 L 181.376 133.231 L 181.376 137.168 A 2.041 2.041 0 0 0 181.406 137.527 Q 181.468 137.876 181.663 138.096 A 0.941 0.941 0 0 0 182.242 138.404 A 1.354 1.354 0 0 0 182.451 138.42 A 3.328 3.328 0 0 0 182.938 138.385 A 3.071 3.071 0 0 0 182.97 138.38 Q 183.22 138.34 183.366 138.298 Z M 190.385 136.801 A 5.234 5.234 0 0 0 190.478 135.782 Q 190.478 134.189 189.651 133.255 A 2.653 2.653 0 0 0 188.419 132.461 A 3.405 3.405 0 0 0 187.42 132.321 A 3.936 3.936 0 0 0 186.713 132.382 A 2.68 2.68 0 0 0 185.149 133.234 A 2.8 2.8 0 0 0 184.805 133.711 Q 184.54 134.172 184.423 134.765 A 5.262 5.262 0 0 0 184.331 135.782 A 5.069 5.069 0 0 0 184.395 136.604 A 3.749 3.749 0 0 0 184.709 137.626 Q 185.088 138.413 185.784 138.835 A 2.822 2.822 0 0 0 186.431 139.123 A 3.254 3.254 0 0 0 187.377 139.256 A 3.935 3.935 0 0 0 188.064 139.198 A 2.702 2.702 0 0 0 189.654 138.337 A 2.827 2.827 0 0 0 189.991 137.875 Q 190.265 137.405 190.385 136.801 Z M 185.381 135.782 A 5.132 5.132 0 0 0 185.43 136.516 Q 185.484 136.888 185.597 137.189 A 2.126 2.126 0 0 0 185.894 137.736 A 1.661 1.661 0 0 0 186.975 138.373 A 2.517 2.517 0 0 0 187.401 138.407 A 2.354 2.354 0 0 0 188.022 138.33 A 1.638 1.638 0 0 0 188.912 137.739 A 2.175 2.175 0 0 0 189.251 137.079 Q 189.351 136.774 189.394 136.402 A 5.338 5.338 0 0 0 189.428 135.782 A 5.056 5.056 0 0 0 189.38 135.062 Q 189.327 134.695 189.216 134.398 A 2.086 2.086 0 0 0 188.912 133.844 Q 188.396 133.182 187.389 133.182 Q 186.394 133.182 185.888 133.835 A 2.095 2.095 0 0 0 185.562 134.464 Q 185.381 135.009 185.381 135.782 Z M 193.268 135.557 L 193.268 135.782 A 6.7 6.7 0 0 0 193.301 136.475 Q 193.393 137.354 193.738 137.8 A 1.47 1.47 0 0 0 194.484 138.303 Q 194.816 138.407 195.246 138.407 A 1.707 1.707 0 0 0 195.91 138.283 Q 196.292 138.123 196.566 137.758 A 2.02 2.02 0 0 0 196.604 137.705 A 2.45 2.45 0 0 0 196.94 136.989 Q 197.037 136.661 197.074 136.267 A 5.399 5.399 0 0 0 197.095 135.77 Q 197.095 134.949 196.884 134.379 A 2.148 2.148 0 0 0 196.604 133.85 A 1.576 1.576 0 0 0 195.451 133.194 A 2.18 2.18 0 0 0 195.221 133.182 A 2.92 2.92 0 0 0 194.676 133.229 Q 194.372 133.287 194.139 133.416 A 1.339 1.339 0 0 0 193.738 133.75 A 1.736 1.736 0 0 0 193.466 134.244 Q 193.276 134.763 193.268 135.557 Z" id="top_labelLayer" stroke="#777777" fill="#777777" style="stroke:#777777;fill:#777777" vector-effect="non-scaling-stroke"/><path d="M 10.26 144.007 L 10.26 141.01 L 16.25 141.01 L 16.25 144.007 L 16.253 144.01 L 22.257 144.01 L 22.26 144.007 L 22.26 141.01 L 28.25 141.01 L 28.25 144.007 L 28.253 144.01 L 34.257 144.01 L 34.26 144.007 L 34.26 141.01 L 40.25 141.01 L 40.25 144.007 L 40.253 144.01 L 46.257 144.01 L 46.26 144.007 L 46.26 141.01 L 52.25 141.01 L 52.25 144.007 L 52.253 144.01 L 62.507 144.01 L 62.51 144.007 L 62.51 136.003 L 62.507 136 L 59.51 136 L 59.51 130.01 L 62.507 130.01 L 62.51 130.007 L 62.51 124.003 L 62.507 124 L 59.51 124 L 59.51 118.01 L 62.507 118.01 L 62.51 118.007 L 62.51 110.003 L 62.507 110 L 52.253 110 L 52.25 110.003 L 52.25 113 L 46.26 113 L 46.26 110.003 L 46.257 110 L 40.253 110 L 40.25 110.003 L 40.25 113 L 34.26 113 L 34.26 110.003 L 34.257 110 L 28.253 110 L 28.25 110.003 L 28.25 113 L 22.26 113 L 22.26 110.003 L 22.257 110 L 16.253 110 L 16.25 110.003 L 16.25 113 L 10.26 113 L 10.26 110.003 L 10.257 110 L 0.003 110 L 0 110.003 L 0 118.007 L 0.003 118.01 L 3 118.01 L 3 124 L 0.003 124 L 0 124.003 L 0 130.007 L 0.003 130.01 L 3 130.01 L 3 136 L 0.003 136 L 0 136.003 L 0 144.007 L 0.003 144.01 L 10.257 144.01 L 10.26 144.007 Z" id="back_outsideCutPath" stroke="#FF0000" stroke-width="0.1" style="stroke:#FF0000;stroke-width:0.1" vector-effect="non-scaling-stroke"/><path d="M 35.911 127.692 L 35.938 127.692 A 3.264 3.264 0 0 1 36.019 127.583 Q 36.112 127.463 36.244 127.308 A 11.848 11.848 0 0 1 36.373 127.161 L 37.549 125.916 L 38.203 125.916 L 36.728 127.467 L 38.306 129.556 L 37.639 129.556 L 36.353 127.835 L 35.938 128.194 L 35.938 129.556 L 35.393 129.556 L 35.393 124.388 L 35.938 124.388 L 35.938 127.128 A 3.675 3.675 0 0 1 35.936 127.232 Q 35.931 127.406 35.911 127.692 Z M 24.755 129.087 L 24.715 129.087 L 24.599 129.556 L 24.204 129.556 L 24.204 124.388 L 24.755 124.388 L 24.755 125.643 A 11.495 11.495 0 0 1 24.749 126.032 Q 24.743 126.215 24.73 126.379 A 6.882 6.882 0 0 1 24.729 126.4 L 24.755 126.4 A 1.254 1.254 0 0 1 25.67 125.869 A 1.883 1.883 0 0 1 25.898 125.856 Q 26.615 125.856 27.012 126.346 Q 27.409 126.836 27.409 127.732 A 3.233 3.233 0 0 1 27.366 128.276 Q 27.278 128.792 27.009 129.126 A 1.305 1.305 0 0 1 26.081 129.613 A 1.87 1.87 0 0 1 25.898 129.622 Q 25.542 129.622 25.248 129.491 Q 24.955 129.36 24.755 129.087 Z M 31.019 129.556 L 30.611 129.556 L 30.501 129.038 L 30.474 129.038 Q 30.202 129.38 29.931 129.501 A 1.271 1.271 0 0 1 29.669 129.584 Q 29.484 129.622 29.256 129.622 A 1.692 1.692 0 0 1 28.911 129.589 Q 28.701 129.545 28.539 129.444 A 0.949 0.949 0 0 1 28.407 129.343 A 0.906 0.906 0 0 1 28.134 128.865 A 1.387 1.387 0 0 1 28.1 128.549 A 0.954 0.954 0 0 1 28.642 127.649 Q 29.078 127.417 29.863 127.394 L 30.481 127.374 L 30.481 127.148 Q 30.481 126.719 30.297 126.515 Q 30.15 126.352 29.862 126.319 A 1.362 1.362 0 0 0 29.707 126.311 A 1.795 1.795 0 0 0 29.294 126.362 Q 29.005 126.431 28.678 126.59 L 28.508 126.168 A 2.542 2.542 0 0 1 28.999 125.966 A 2.894 2.894 0 0 1 29.098 125.939 Q 29.418 125.856 29.74 125.856 Q 30.391 125.856 30.705 126.145 A 0.873 0.873 0 0 1 30.931 126.492 Q 30.983 126.635 31.005 126.812 A 2.169 2.169 0 0 1 31.019 127.071 L 31.019 129.556 Z M 34.583 126.038 L 34.414 126.507 A 2.453 2.453 0 0 0 34.147 126.418 A 2.929 2.929 0 0 0 34.015 126.386 A 2.277 2.277 0 0 0 33.842 126.353 Q 33.757 126.341 33.682 126.338 A 1.222 1.222 0 0 0 33.633 126.337 Q 32.524 126.337 32.524 127.752 A 2.67 2.67 0 0 0 32.55 128.141 Q 32.579 128.338 32.64 128.498 A 1.144 1.144 0 0 0 32.794 128.782 A 0.876 0.876 0 0 0 33.362 129.121 A 1.334 1.334 0 0 0 33.597 129.141 Q 34.052 129.141 34.53 128.945 L 34.53 129.433 Q 34.216 129.595 33.763 129.618 A 3.023 3.023 0 0 1 33.61 129.622 A 2.061 2.061 0 0 1 33.109 129.565 A 1.397 1.397 0 0 1 32.386 129.136 Q 32.012 128.715 31.961 127.994 A 3.334 3.334 0 0 1 31.952 127.759 Q 31.952 127.098 32.183 126.654 A 1.52 1.52 0 0 1 32.393 126.347 A 1.428 1.428 0 0 1 33.174 125.898 A 2.164 2.164 0 0 1 33.646 125.849 A 2.488 2.488 0 0 1 34.171 125.906 A 2.752 2.752 0 0 1 34.324 125.943 Q 34.478 125.985 34.58 126.037 A 0.838 0.838 0 0 1 34.583 126.038 Z M 25.818 126.317 A 1.549 1.549 0 0 0 25.518 126.345 Q 25.347 126.378 25.217 126.454 A 0.733 0.733 0 0 0 25.004 126.641 Q 24.755 126.965 24.755 127.732 A 3.645 3.645 0 0 0 24.773 128.109 Q 24.823 128.587 25.011 128.83 Q 25.24 129.126 25.718 129.157 A 1.773 1.773 0 0 0 25.831 129.16 A 1.099 1.099 0 0 0 26.144 129.119 A 0.793 0.793 0 0 0 26.589 128.79 A 1.266 1.266 0 0 0 26.745 128.451 Q 26.794 128.291 26.817 128.096 A 3.159 3.159 0 0 0 26.838 127.726 A 3.257 3.257 0 0 0 26.818 127.355 Q 26.771 126.949 26.614 126.703 A 0.915 0.915 0 0 0 26.589 126.666 A 0.804 0.804 0 0 0 26.077 126.342 A 1.275 1.275 0 0 0 25.818 126.317 Z M 30.468 128.094 L 30.468 127.766 L 29.917 127.789 A 4.048 4.048 0 0 0 29.593 127.812 Q 29.274 127.849 29.074 127.938 A 0.847 0.847 0 0 0 28.968 127.993 A 0.588 0.588 0 0 0 28.688 128.42 A 0.871 0.871 0 0 0 28.678 128.556 A 0.788 0.788 0 0 0 28.697 128.737 Q 28.737 128.906 28.859 129.011 A 0.6 0.6 0 0 0 29.084 129.13 Q 29.173 129.157 29.279 129.164 A 1.24 1.24 0 0 0 29.365 129.167 A 1.518 1.518 0 0 0 29.693 129.134 Q 29.921 129.083 30.09 128.956 A 0.921 0.921 0 0 0 30.174 128.885 A 0.923 0.923 0 0 0 30.432 128.424 Q 30.467 128.275 30.468 128.1 A 1.764 1.764 0 0 0 30.468 128.094 Z" id="back_labelLayer" stroke="#777777" fill="#777777" style="stroke:#777777;fill:#777777" vector-effect="non-scaling-stroke"/><path d="M 71.02 144.007 L 71.02 141.01 L 77.01 141.01 L 77.01 144.007 L 77.013 144.01 L 83.017 144.01 L 83.02 144.007 L 83.02 141.01 L 89.01 141.01 L 89.01 144.007 L 89.013 144.01 L 95.017 144.01 L 95.02 144.007 L 95.02 141.01 L 101.01 141.01 L 101.01 144.007 L 101.013 144.01 L 107.017 144.01 L 107.02 144.007 L 107.02 141.01 L 113.01 141.01 L 113.01 144.007 L 113.013 144.01 L 119.017 144.01 L 119.02 144.007 L 119.02 141.01 L 125.01 141.01 L 125.01 144.007 L 125.013 144.01 L 131.017 144.01 L 131.02 144.007 L 131.02 141.01 L 137.01 141.01 L 137.01 144.007 L 137.013 144.01 L 143.017 144.01 L 143.02 144.007 L 143.02 141.01 L 149.01 141.01 L 149.01 144.007 L 149.013 144.01 L 151.517 144.01 L 151.52 144.007 L 151.52 136.01 L 154.517 136.01 L 154.52 136.007 L 154.52 130.003 L 154.517 130 L 151.52 130 L 151.52 124.01 L 154.517 124.01 L 154.52 124.007 L 154.52 118.003 L 154.517 118 L 151.52 118 L 151.52 110.003 L 151.517 110 L 149.013 110 L 149.01 110.003 L 149.01 113 L 143.02 113 L 143.02 110.003 L 143.017 110 L 137.013 110 L 137.01 110.003 L 137.01 113 L 131.02 113 L 131.02 110.003 L 131.017 110 L 125.013 110 L 125.01 110.003 L 125.01 113 L 119.02 113 L 119.02 110.003 L 119.017 110 L 113.013 110 L 113.01 110.003 L 113.01 113 L 107.02 113 L 107.02 110.003 L 107.017 110 L 101.013 110 L 101.01 110.003 L 101.01 113 L 95.02 113 L 95.02 110.003 L 95.017 110 L 89.013 110 L 89.01 110.003 L 89.01 113 L 83.02 113 L 83.02 110.003 L 83.017 110 L 77.013 110 L 77.01 110.003 L 77.01 113 L 71.02 113 L 71.02 110.003 L 71.017 110 L 68.513 110 L 68.51 110.003 L 68.51 118 L 65.513 118 L 65.51 118.003 L 65.51 124.007 L 65.513 124.01 L 68.51 124.01 L 68.51 130 L 65.513 130 L 65.51 130.003 L 65.51 136.007 L 65.513 136.01 L 68.51 136.01 L 68.51 144.007 L 68.513 144.01 L 71.017 144.01 L 71.02 144.007 Z" id="right_outsideCutPath" stroke="#FF0000" stroke-width="0.1" style="stroke:#FF0000;stroke-width:0.1" vector-effect="non-scaling-stroke"/><path d="M 114.245 128.772 L 113.693 128.772 L 113.693 126.417 Q 113.693 126.133 113.611 125.941 A 0.656 0.656 0 0 0 113.491 125.753 A 0.622 0.622 0 0 0 113.236 125.59 Q 113.136 125.555 113.012 125.542 A 1.462 1.462 0 0 0 112.856 125.534 A 1.668 1.668 0 0 0 112.544 125.561 Q 112.372 125.594 112.238 125.667 A 0.772 0.772 0 0 0 112.018 125.846 A 0.917 0.917 0 0 0 111.862 126.122 Q 111.768 126.374 111.756 126.75 A 3.558 3.558 0 0 0 111.754 126.869 L 111.754 128.772 L 111.202 128.772 L 111.202 123.604 L 111.754 123.604 L 111.754 125.168 A 4.96 4.96 0 0 1 111.75 125.359 Q 111.747 125.448 111.74 125.525 A 2.157 2.157 0 0 1 111.727 125.637 L 111.76 125.637 A 1.102 1.102 0 0 1 112.146 125.265 A 1.346 1.346 0 0 1 112.224 125.223 A 1.415 1.415 0 0 1 112.688 125.085 A 1.789 1.789 0 0 1 112.91 125.072 A 2.237 2.237 0 0 1 113.285 125.101 Q 113.679 125.169 113.911 125.389 Q 114.245 125.706 114.245 126.397 L 114.245 128.772 Z M 109.196 125.132 L 110.455 125.132 L 110.455 125.481 L 109.781 125.56 A 0.896 0.896 0 0 1 109.858 125.676 Q 109.892 125.735 109.923 125.807 A 1.7 1.7 0 0 1 109.947 125.864 Q 110.02 126.052 110.02 126.288 A 1.264 1.264 0 0 1 109.962 126.679 A 1.022 1.022 0 0 1 109.655 127.141 Q 109.289 127.46 108.652 127.46 A 1.772 1.772 0 0 1 108.447 127.449 A 1.496 1.496 0 0 1 108.346 127.433 Q 108.145 127.54 108.059 127.677 A 0.415 0.415 0 0 0 107.994 127.902 A 0.286 0.286 0 0 0 108.009 127.995 Q 108.035 128.072 108.109 128.118 A 0.306 0.306 0 0 0 108.117 128.123 Q 108.216 128.18 108.429 128.191 A 2.097 2.097 0 0 0 108.539 128.194 L 109.183 128.194 Q 109.577 128.194 109.85 128.305 A 0.996 0.996 0 0 1 110.091 128.443 A 0.807 0.807 0 0 1 110.391 128.957 A 1.211 1.211 0 0 1 110.409 129.167 A 1.194 1.194 0 0 1 110.34 129.58 Q 110.227 129.891 109.924 130.089 A 1.653 1.653 0 0 1 109.497 130.282 Q 109.287 130.346 109.031 130.377 A 4.37 4.37 0 0 1 108.509 130.406 A 3.089 3.089 0 0 1 108.094 130.38 Q 107.674 130.323 107.408 130.14 Q 107.046 129.892 107.022 129.451 A 1.164 1.164 0 0 1 107.021 129.39 Q 107.021 129.058 107.233 128.815 A 0.963 0.963 0 0 1 107.564 128.574 A 1.365 1.365 0 0 1 107.831 128.486 A 0.572 0.572 0 0 1 107.609 128.307 A 0.679 0.679 0 0 1 107.597 128.29 A 0.511 0.511 0 0 1 107.503 128.014 A 0.633 0.633 0 0 1 107.502 127.981 A 0.63 0.63 0 0 1 107.534 127.778 A 0.559 0.559 0 0 1 107.609 127.633 Q 107.689 127.52 107.84 127.413 A 1.732 1.732 0 0 1 107.944 127.344 A 0.967 0.967 0 0 1 107.524 127.008 A 1.198 1.198 0 0 1 107.484 126.949 A 1.14 1.14 0 0 1 107.309 126.399 A 1.391 1.391 0 0 1 107.306 126.311 A 1.593 1.593 0 0 1 107.348 125.934 A 1.048 1.048 0 0 1 107.665 125.389 A 1.171 1.171 0 0 1 108.115 125.141 Q 108.363 125.065 108.682 125.065 A 2.113 2.113 0 0 1 108.961 125.083 A 1.61 1.61 0 0 1 109.196 125.132 Z M 117.051 128.317 L 117.051 128.739 A 0.542 0.542 0 0 1 116.987 128.764 Q 116.907 128.791 116.787 128.81 Q 116.624 128.836 116.492 128.838 A 1.414 1.414 0 0 1 116.473 128.838 Q 115.631 128.838 115.46 128.131 A 1.733 1.733 0 0 1 115.417 127.726 L 115.417 125.56 L 114.896 125.56 L 114.896 125.295 L 115.417 125.065 L 115.65 124.288 L 115.968 124.288 L 115.968 125.132 L 117.025 125.132 L 117.025 125.56 L 115.968 125.56 L 115.968 127.702 A 1.11 1.11 0 0 0 115.984 127.897 Q 116.018 128.088 116.125 128.207 Q 116.281 128.383 116.553 128.383 A 1.811 1.811 0 0 0 116.818 128.364 A 1.668 1.668 0 0 0 116.835 128.362 A 2.983 2.983 0 0 0 116.915 128.348 Q 116.996 128.333 117.051 128.317 Z M 105.075 125.105 L 104.998 125.617 A 2.43 2.43 0 0 0 104.823 125.584 Q 104.736 125.572 104.659 125.568 A 1.293 1.293 0 0 0 104.6 125.567 A 0.955 0.955 0 0 0 103.894 125.872 A 1.307 1.307 0 0 0 103.844 125.926 Q 103.53 126.284 103.53 126.819 L 103.53 128.772 L 102.979 128.772 L 102.979 125.132 L 103.434 125.132 L 103.497 125.806 L 103.524 125.806 A 1.862 1.862 0 0 1 103.732 125.509 A 1.422 1.422 0 0 1 104.012 125.258 A 1.099 1.099 0 0 1 104.639 125.065 A 2.531 2.531 0 0 1 104.866 125.075 A 1.847 1.847 0 0 1 105.075 125.105 Z M 106.307 125.132 L 106.307 128.772 L 105.755 128.772 L 105.755 125.132 L 106.307 125.132 Z M 109.007 128.689 L 108.346 128.689 Q 108.071 128.689 107.885 128.785 A 0.646 0.646 0 0 0 107.762 128.868 Q 107.552 129.048 107.552 129.383 Q 107.552 129.659 107.769 129.81 A 0.647 0.647 0 0 0 107.801 129.831 A 0.883 0.883 0 0 0 108.019 129.924 Q 108.223 129.984 108.511 129.984 A 2.854 2.854 0 0 0 108.515 129.984 A 3.706 3.706 0 0 0 108.877 129.968 Q 109.24 129.932 109.468 129.819 A 0.916 0.916 0 0 0 109.543 129.777 Q 109.877 129.569 109.877 129.214 A 0.746 0.746 0 0 0 109.864 129.066 Q 109.827 128.887 109.694 128.803 A 0.523 0.523 0 0 0 109.571 128.749 Q 109.438 128.709 109.229 128.695 A 3.508 3.508 0 0 0 109.007 128.689 Z M 107.851 126.298 A 1.076 1.076 0 0 0 107.873 126.523 Q 107.92 126.742 108.067 126.875 A 0.713 0.713 0 0 0 108.354 127.031 Q 108.463 127.063 108.594 127.069 A 1.42 1.42 0 0 0 108.668 127.071 Q 109.475 127.071 109.475 126.288 A 1.186 1.186 0 0 0 109.435 125.963 Q 109.293 125.467 108.658 125.467 A 1.157 1.157 0 0 0 108.423 125.49 Q 108.278 125.52 108.168 125.59 A 0.635 0.635 0 0 0 108.06 125.676 A 0.662 0.662 0 0 0 107.9 125.946 Q 107.867 126.051 107.856 126.178 A 1.45 1.45 0 0 0 107.851 126.298 Z M 105.717 124.044 A 0.611 0.611 0 0 0 105.709 124.145 A 0.651 0.651 0 0 0 105.712 124.208 Q 105.725 124.347 105.802 124.423 Q 105.895 124.514 106.034 124.514 A 0.322 0.322 0 0 0 106.264 124.423 Q 106.36 124.331 106.36 124.145 A 0.631 0.631 0 0 0 106.357 124.086 Q 106.352 124.031 106.337 123.987 A 0.278 0.278 0 0 0 106.264 123.87 A 0.325 0.325 0 0 0 106.034 123.78 A 0.421 0.421 0 0 0 106.007 123.781 A 0.319 0.319 0 0 0 105.802 123.868 A 0.258 0.258 0 0 0 105.745 123.949 Q 105.726 123.991 105.717 124.044 Z" id="right_labelLayer" stroke="#777777" fill="#777777" style="stroke:#777777;fill:#777777" vector-effect="non-scaling-stroke"/><path d="M 173.78 89.007 L 173.78 86.01 L 179.77 86.01 L 179.77 89.007 L 179.773 89.01 L 185.777 89.01 L 185.78 89.007 L 185.78 86.01 L 191.77 86.01 L 191.77 89.007 L 191.773 89.01 L 197.777 89.01 L 197.78 89.007 L 197.78 86.01 L 203.77 86.01 L 203.77 89.007 L 203.773 89.01 L 209.777 89.01 L 209.78 89.007 L 209.78 86.01 L 217.027 86.01 L 217.03 86.007 L 217.03 83.51 L 220.027 83.51 L 220.03 83.507 L 220.03 77.503 L 220.027 77.5 L 217.03 77.5 L 217.03 71.51 L 220.027 71.51 L 220.03 71.507 L 220.03 65.503 L 220.027 65.5 L 217.03 65.5 L 217.03 59.51 L 220.027 59.51 L 220.03 59.507 L 220.03 53.503 L 220.027 53.5 L 217.03 53.5 L 217.03 47.51 L 220.027 47.51 L 220.03 47.507 L 220.03 41.503 L 220.027 41.5 L 217.03 41.5 L 217.03 35.51 L 220.027 35.51 L 220.03 35.507 L 220.03 29.503 L 220.027 29.5 L 217.03 29.5 L 217.03 23.51 L 220.027 23.51 L 220.03 23.507 L 220.03 17.503 L 220.027 17.5 L 217.03 17.5 L 217.03 11.51 L 220.027 11.51 L 220.03 11.507 L 220.03 5.503 L 220.027 5.5 L 217.03 5.5 L 217.03 3.003 L 217.027 3 L 209.78 3 L 209.78 0.003 L 209.777 0 L 203.773 0 L 203.77 0.003 L 203.77 3 L 197.78 3 L 197.78 0.003 L 197.777 0 L 191.773 0 L 191.77 0.003 L 191.77 3 L 185.78 3 L 185.78 0.003 L 185.777 0 L 179.773 0 L 179.77 0.003 L 179.77 3 L 173.78 3 L 173.78 0.003 L 173.777 0 L 167.773 0 L 167.77 0.003 L 167.77 3 L 160.523 3 L 160.52 3.003 L 160.52 5.5 L 157.523 5.5 L 157.52 5.503 L 157.52 11.507 L 157.523 11.51 L 160.52 11.51 L 160.52 17.5 L 157.523 17.5 L 157.52 17.503 L 157.52 23.507 L 157.523 23.51 L 160.52 23.51 L 160.52 29.5 L 157.523 29.5 L 157.52 29.503 L 157.52 35.507 L 157.523 35.51 L 160.52 35.51 L 160.52 41.5 L 157.523 41.5 L 157.52 41.503 L 157.52 47.507 L 157.523 47.51 L 160.52 47.51 L 160.52 53.5 L 157.523 53.5 L 157.52 53.503 L 157.52 59.507 L 157.523 59.51 L 160.52 59.51 L 160.52 65.5 L 157.523 65.5 L 157.52 65.503 L 157.52 71.507 L 157.523 71.51 L 160.52 71.51 L 160.52 77.5 L 157.523 77.5 L 157.52 77.503 L 157.52 83.507 L 157.523 83.51 L 160.52 83.51 L 160.52 86.007 L 160.523 86.01 L 167.77 86.01 L 167.77 89.007 L 167.773 89.01 L 173.777 89.01 L 173.78 89.007 Z" id="bottom_outsideCutPath" stroke="#FF0000" stroke-width="0.1" style="stroke:#FF0000;stroke-width:0.1" vector-effect="non-scaling-stroke"/><path d="M 209.341 49.193 L 208.328 49.193 L 208.328 44.841 Q 208.328 44.34 208.193 43.996 A 1.225 1.225 0 0 0 207.986 43.641 Q 207.644 43.241 206.924 43.241 Q 205.977 43.241 205.526 43.785 A 1.675 1.675 0 0 0 205.242 44.298 Q 205.074 44.769 205.074 45.457 L 205.074 49.193 L 204.061 49.193 L 204.061 44.841 Q 204.061 44.34 203.926 43.996 A 1.225 1.225 0 0 0 203.719 43.641 A 1.063 1.063 0 0 0 203.23 43.323 Q 203.054 43.266 202.839 43.248 A 2.373 2.373 0 0 0 202.65 43.241 A 2.517 2.517 0 0 0 202.13 43.292 Q 201.567 43.411 201.256 43.812 A 1.699 1.699 0 0 0 201.004 44.291 Q 200.813 44.83 200.813 45.683 L 200.813 49.193 L 199.8 49.193 L 199.8 42.503 L 200.624 42.503 L 200.789 43.418 L 200.837 43.418 Q 201.124 42.93 201.646 42.655 A 2.406 2.406 0 0 1 202.597 42.389 A 2.906 2.906 0 0 1 202.815 42.38 Q 204.384 42.38 204.866 43.516 L 204.915 43.516 A 2.116 2.116 0 0 1 205.712 42.725 A 2.542 2.542 0 0 1 205.782 42.686 A 2.565 2.565 0 0 1 206.723 42.4 A 3.198 3.198 0 0 1 207.076 42.38 A 3.522 3.522 0 0 1 207.715 42.435 Q 208.07 42.5 208.348 42.645 A 1.67 1.67 0 0 1 208.776 42.963 A 1.745 1.745 0 0 1 209.151 43.576 Q 209.252 43.846 209.299 44.183 A 4.648 4.648 0 0 1 209.341 44.828 L 209.341 49.193 Z M 169.222 48.332 L 169.149 48.332 L 168.935 49.193 L 168.209 49.193 L 168.209 39.695 L 169.222 39.695 L 169.222 42.002 A 21.127 21.127 0 0 1 169.211 42.716 Q 169.199 43.053 169.177 43.354 A 12.633 12.633 0 0 1 169.173 43.394 L 169.222 43.394 Q 169.93 42.393 171.322 42.393 A 3.097 3.097 0 0 1 172.194 42.509 A 2.318 2.318 0 0 1 173.37 43.293 A 2.986 2.986 0 0 1 173.894 44.302 Q 174.1 44.966 174.1 45.842 A 5.941 5.941 0 0 1 174.021 46.841 Q 173.93 47.374 173.734 47.802 A 2.848 2.848 0 0 1 173.364 48.403 A 2.399 2.399 0 0 1 171.659 49.299 A 3.437 3.437 0 0 1 171.322 49.315 A 3.074 3.074 0 0 1 170.55 49.221 A 2.674 2.674 0 0 1 170.129 49.074 Q 169.589 48.833 169.222 48.332 Z M 186.498 48.357 L 186.498 49.132 A 0.997 0.997 0 0 1 186.38 49.179 Q 186.254 49.221 186.073 49.253 A 3.789 3.789 0 0 1 186.013 49.263 A 4.392 4.392 0 0 1 185.726 49.301 Q 185.572 49.315 185.436 49.315 A 2.647 2.647 0 0 1 184.656 49.21 Q 183.799 48.946 183.574 48.014 A 3.185 3.185 0 0 1 183.495 47.27 L 183.495 43.29 L 182.536 43.29 L 182.536 42.802 L 183.495 42.38 L 183.922 40.952 L 184.508 40.952 L 184.508 42.503 L 186.449 42.503 L 186.449 43.29 L 184.508 43.29 L 184.508 47.227 A 2.041 2.041 0 0 0 184.537 47.586 Q 184.6 47.935 184.795 48.155 A 0.941 0.941 0 0 0 185.374 48.463 A 1.354 1.354 0 0 0 185.582 48.479 A 3.328 3.328 0 0 0 186.07 48.444 A 3.071 3.071 0 0 0 186.101 48.439 Q 186.351 48.4 186.498 48.357 Z M 190.912 48.357 L 190.912 49.132 A 0.997 0.997 0 0 1 190.793 49.179 Q 190.667 49.221 190.487 49.253 A 3.789 3.789 0 0 1 190.426 49.263 A 4.392 4.392 0 0 1 190.14 49.301 Q 189.986 49.315 189.849 49.315 A 2.647 2.647 0 0 1 189.069 49.21 Q 188.212 48.946 187.988 48.014 A 3.185 3.185 0 0 1 187.908 47.27 L 187.908 43.29 L 186.95 43.29 L 186.95 42.802 L 187.908 42.38 L 188.335 40.952 L 188.921 40.952 L 188.921 42.503 L 190.863 42.503 L 190.863 43.29 L 188.921 43.29 L 188.921 47.227 A 2.041 2.041 0 0 0 188.951 47.586 Q 189.013 47.935 189.208 48.155 A 0.941 0.941 0 0 0 189.787 48.463 A 1.354 1.354 0 0 0 189.996 48.479 A 3.328 3.328 0 0 0 190.483 48.444 A 3.071 3.071 0 0 0 190.515 48.439 Q 190.765 48.4 190.912 48.357 Z M 181.552 46.86 A 5.234 5.234 0 0 0 181.645 45.842 Q 181.645 44.248 180.818 43.314 A 2.653 2.653 0 0 0 179.586 42.52 A 3.405 3.405 0 0 0 178.587 42.38 A 3.936 3.936 0 0 0 177.88 42.441 A 2.68 2.68 0 0 0 176.316 43.293 A 2.8 2.8 0 0 0 175.972 43.77 Q 175.707 44.232 175.59 44.824 A 5.262 5.262 0 0 0 175.498 45.842 A 5.069 5.069 0 0 0 175.561 46.663 A 3.749 3.749 0 0 0 175.876 47.685 Q 176.255 48.473 176.951 48.894 A 2.822 2.822 0 0 0 177.598 49.182 A 3.254 3.254 0 0 0 178.544 49.315 A 3.935 3.935 0 0 0 179.231 49.258 A 2.702 2.702 0 0 0 180.821 48.396 A 2.827 2.827 0 0 0 181.157 47.934 Q 181.432 47.464 181.552 46.86 Z M 197.93 46.86 A 5.234 5.234 0 0 0 198.023 45.842 Q 198.023 44.248 197.196 43.314 A 2.653 2.653 0 0 0 195.965 42.52 A 3.405 3.405 0 0 0 194.965 42.38 A 3.936 3.936 0 0 0 194.258 42.441 A 2.68 2.68 0 0 0 192.694 43.293 A 2.8 2.8 0 0 0 192.35 43.77 Q 192.085 44.232 191.968 44.824 A 5.262 5.262 0 0 0 191.876 45.842 A 5.069 5.069 0 0 0 191.94 46.663 A 3.749 3.749 0 0 0 192.255 47.685 Q 192.633 48.473 193.329 48.894 A 2.822 2.822 0 0 0 193.977 49.182 A 3.254 3.254 0 0 0 194.922 49.315 A 3.935 3.935 0 0 0 195.609 49.258 A 2.702 2.702 0 0 0 197.199 48.396 A 2.827 2.827 0 0 0 197.536 47.934 Q 197.81 47.464 197.93 46.86 Z M 176.548 45.842 A 5.132 5.132 0 0 0 176.597 46.575 Q 176.65 46.947 176.764 47.248 A 2.126 2.126 0 0 0 177.06 47.795 A 1.661 1.661 0 0 0 178.142 48.432 A 2.517 2.517 0 0 0 178.568 48.467 A 2.354 2.354 0 0 0 179.189 48.389 A 1.638 1.638 0 0 0 180.079 47.798 A 2.175 2.175 0 0 0 180.418 47.138 Q 180.517 46.834 180.561 46.461 A 5.338 5.338 0 0 0 180.595 45.842 A 5.056 5.056 0 0 0 180.547 45.121 Q 180.494 44.754 180.383 44.457 A 2.086 2.086 0 0 0 180.079 43.904 Q 179.563 43.241 178.556 43.241 Q 177.561 43.241 177.054 43.894 A 2.095 2.095 0 0 0 176.729 44.524 Q 176.548 45.068 176.548 45.842 Z M 192.926 45.842 A 5.132 5.132 0 0 0 192.975 46.575 Q 193.029 46.947 193.142 47.248 A 2.126 2.126 0 0 0 193.439 47.795 A 1.661 1.661 0 0 0 194.52 48.432 A 2.517 2.517 0 0 0 194.947 48.467 A 2.354 2.354 0 0 0 195.568 48.389 A 1.638 1.638 0 0 0 196.457 47.798 A 2.175 2.175 0 0 0 196.796 47.138 Q 196.896 46.834 196.939 46.461 A 5.338 5.338 0 0 0 196.973 45.842 A 5.056 5.056 0 0 0 196.925 45.121 Q 196.872 44.754 196.761 44.457 A 2.086 2.086 0 0 0 196.457 43.904 Q 195.942 43.241 194.934 43.241 Q 193.939 43.241 193.433 43.894 A 2.095 2.095 0 0 0 193.107 44.524 Q 192.926 45.068 192.926 45.842 Z M 171.176 43.241 Q 170.138 43.241 169.68 43.836 Q 169.222 44.432 169.222 45.842 A 6.7 6.7 0 0 0 169.255 46.534 Q 169.347 47.413 169.692 47.859 A 1.47 1.47 0 0 0 170.438 48.363 Q 170.77 48.467 171.2 48.467 A 2.02 2.02 0 0 0 171.774 48.39 A 1.457 1.457 0 0 0 172.592 47.786 A 2.326 2.326 0 0 0 172.88 47.163 Q 173.05 46.607 173.05 45.83 A 5.987 5.987 0 0 0 173.014 45.147 Q 172.921 44.343 172.592 43.882 A 1.478 1.478 0 0 0 171.651 43.287 A 2.344 2.344 0 0 0 171.176 43.241 Z" id="bottom_labelLayer" stroke="#777777" fill="#777777" style="stroke:#777777;fill:#777777" vector-effect="non-scaling-stroke"/></g></svg>