<svg width="302.03mm" height="345.02mm" viewBox="0 0 302.03 345.02" xmlns="http://www.w3.org/2000/svg" version="1.1" preserveAspectRatio="xMidYMid meet"><g id="svgGroup" stroke-linecap="round" fill-rule="evenodd" font-size="9pt" stroke="#000" stroke-width="0.25mm" fill="none" style="stroke:#000;stroke-width:0.25mm;fill:none"><path d="M 10.26 345.017 L 10.26 342.02 L 16.25 342.02 L 16.25 345.017 L 16.253 345.02 L 22.257 345.02 L 22.26 345.017 L 22.26 342.02 L 28.25 342.02 L 28.25 345.017 L 28.253 345.02 L 34.257 345.02 L 34.26 345.017 L 34.26 342.02 L 40.25 342.02 L 40.25 345.017 L 40.253 345.02 L 46.257 345.02 L 46.26 345.017 L 46.26 342.02 L 52.25 342.02 L 52.25 345.017 L 52.253 345.02 L 62.507 345.02 L 62.51 345.017 L 62.51 337.013 L 62.507 337.01 L 59.51 337.01 L 59.51 331.02 L 62.507 331.02 L 62.51 331.017 L 62.51 325.013 L 62.507 325.01 L 59.51 325.01 L 59.51 319.02 L 62.507 319.02 L 62.51 319.017 L 62.51 313.013 L 62.507 313.01 L 59.51 313.01 L 59.51 307.02 L 62.507 307.02 L 62.51 307.017 L 62.51 299.013 L 62.507 299.01 L 52.253 299.01 L 52.25 299.013 L 52.25 302.01 L 46.26 302.01 L 46.26 299.013 L 46.257 299.01 L 40.253 299.01 L 40.25 299.013 L 40.25 302.01 L 34.26 302.01 L 34.26 299.013 L 34.257 299.01 L 28.253 299.01 L 28.25 299.013 L 28.25 302.01 L 22.26 302.01 L 22.26 299.013 L 22.257 299.01 L 16.253 299.01 L 16.25 299.013 L 16.25 302.01 L 10.26 302.01 L 10.26 299.013 L 10.257 299.01 L 0.003 299.01 L 0 299.013 L 0 307.017 L 0.003 307.02 L 3 307.02 L 3 313.01 L 0.003 313.01 L 0 313.013 L 0 319.017 L 0.003 319.02 L 3 319.02 L 3 325.01 L 0.003 325.01 L 0 325.013 L 0 331.017 L 0.003 331.02 L 3 331.02 L 3 337.01 L 0.003 337.01 L 0 337.013 L 0 345.017 L 0.003 345.02 L 10.257 345.02 L 10.26 345.017 Z" id="front_outsideCutPath" stroke="#FF0000" stroke-width="0.1" style="stroke:#FF0000;stroke-width:0.1" vector-effect="non-scaling-stroke"/><path d="M 37.961 325.49 L 37.215 325.49 L 37.215 322.305 A 2.108 2.108 0 0 0 37.191 321.974 Q 37.134 321.615 36.941 321.406 Q 36.719 321.166 36.294 321.12 A 1.977 1.977 0 0 0 36.083 321.11 A 2.257 2.257 0 0 0 35.66 321.146 Q 35.425 321.191 35.244 321.291 A 1.052 1.052 0 0 0 34.951 321.527 Q 34.591 321.945 34.591 322.907 L 34.591 325.49 L 33.845 325.49 L 33.845 320.566 L 34.452 320.566 L 34.573 321.24 L 34.609 321.24 A 1.51 1.51 0 0 1 35.201 320.702 A 1.817 1.817 0 0 1 35.252 320.676 A 2.02 2.02 0 0 1 35.97 320.484 A 2.442 2.442 0 0 1 36.173 320.476 Q 36.763 320.476 37.159 320.665 A 1.34 1.34 0 0 1 37.512 320.905 A 1.293 1.293 0 0 1 37.827 321.4 Q 37.961 321.762 37.961 322.278 L 37.961 325.49 Z M 23.632 320.566 L 23.632 321.145 L 22.379 321.145 L 22.379 325.49 L 21.633 325.49 L 21.633 321.145 L 20.752 321.145 L 20.752 320.808 L 21.633 320.539 L 21.633 320.265 A 3.023 3.023 0 0 1 21.703 319.58 Q 21.922 318.645 22.815 318.484 A 2.267 2.267 0 0 1 23.219 318.45 A 2.402 2.402 0 0 1 23.559 318.476 Q 23.724 318.499 23.908 318.545 A 4.828 4.828 0 0 1 24.136 318.607 L 23.942 319.204 A 3.622 3.622 0 0 0 23.661 319.125 Q 23.518 319.092 23.393 319.077 A 1.604 1.604 0 0 0 23.205 319.065 A 1.006 1.006 0 0 0 22.963 319.093 A 0.646 0.646 0 0 0 22.581 319.346 A 0.863 0.863 0 0 0 22.467 319.576 Q 22.379 319.838 22.379 320.247 L 22.379 320.566 L 23.632 320.566 Z M 41.758 324.875 L 41.758 325.445 A 0.734 0.734 0 0 1 41.671 325.48 Q 41.563 325.516 41.401 325.542 Q 41.18 325.578 41.001 325.58 A 1.912 1.912 0 0 1 40.976 325.58 A 1.948 1.948 0 0 1 40.402 325.503 Q 39.771 325.308 39.606 324.623 A 2.344 2.344 0 0 1 39.547 324.075 L 39.547 321.145 L 38.842 321.145 L 38.842 320.786 L 39.547 320.476 L 39.862 319.425 L 40.293 319.425 L 40.293 320.566 L 41.722 320.566 L 41.722 321.145 L 40.293 321.145 L 40.293 324.044 A 1.502 1.502 0 0 0 40.315 324.307 Q 40.341 324.452 40.397 324.567 A 0.723 0.723 0 0 0 40.504 324.727 A 0.693 0.693 0 0 0 40.93 324.953 A 0.997 0.997 0 0 0 41.084 324.965 Q 41.281 324.965 41.466 324.935 A 4.035 4.035 0 0 0 41.573 324.917 Q 41.684 324.896 41.758 324.875 Z M 27.366 320.53 L 27.263 321.222 Q 26.957 321.154 26.724 321.154 Q 26.126 321.154 25.701 321.64 A 1.703 1.703 0 0 0 25.291 322.596 A 2.264 2.264 0 0 0 25.277 322.848 L 25.277 325.49 L 24.531 325.49 L 24.531 320.566 L 25.147 320.566 L 25.232 321.478 L 25.268 321.478 A 2.519 2.519 0 0 1 25.549 321.076 A 1.924 1.924 0 0 1 25.928 320.737 A 1.487 1.487 0 0 1 26.778 320.476 A 3.424 3.424 0 0 1 27.084 320.489 A 2.499 2.499 0 0 1 27.366 320.53 Z M 32.469 323.773 A 3.853 3.853 0 0 0 32.538 323.024 A 4.377 4.377 0 0 0 32.536 322.905 Q 32.525 322.495 32.436 322.147 A 2.323 2.323 0 0 0 31.929 321.163 A 1.953 1.953 0 0 0 31.023 320.579 A 2.506 2.506 0 0 0 30.287 320.476 A 2.897 2.897 0 0 0 29.766 320.521 A 1.973 1.973 0 0 0 28.615 321.148 Q 28.215 321.594 28.081 322.275 A 3.873 3.873 0 0 0 28.013 323.024 A 3.731 3.731 0 0 0 28.06 323.628 A 2.759 2.759 0 0 0 28.292 324.381 A 2.452 2.452 0 0 0 28.346 324.487 A 2.019 2.019 0 0 0 29.083 325.27 A 2.077 2.077 0 0 0 29.559 325.482 A 2.395 2.395 0 0 0 30.255 325.58 A 2.896 2.896 0 0 0 30.761 325.538 A 1.988 1.988 0 0 0 31.931 324.904 A 2.081 2.081 0 0 0 32.179 324.564 Q 32.381 324.218 32.469 323.773 Z M 28.786 323.024 A 3.777 3.777 0 0 0 28.822 323.563 Q 28.902 324.12 29.163 324.461 A 1.222 1.222 0 0 0 29.96 324.93 A 1.852 1.852 0 0 0 30.273 324.956 A 1.732 1.732 0 0 0 30.73 324.899 A 1.206 1.206 0 0 0 31.385 324.464 A 1.601 1.601 0 0 0 31.635 323.978 Q 31.765 323.579 31.765 323.024 Q 31.765 322.421 31.609 322.005 A 1.536 1.536 0 0 0 31.385 321.597 Q 31.006 321.11 30.264 321.11 A 1.775 1.775 0 0 0 29.822 321.161 A 1.188 1.188 0 0 0 29.159 321.59 A 1.542 1.542 0 0 0 28.919 322.054 Q 28.848 322.266 28.815 322.527 A 3.941 3.941 0 0 0 28.786 323.024 Z" id="front_labelLayer" stroke="#777777" fill="#777777" style="stroke:#777777;fill:#777777" vector-effect="non-scaling-stroke"/><path d="M 76.02 345.017 L 76.02 342.02 L 82.01 342.02 L 82.01 345.017 L 82.013 345.02 L 88.017 345.02 L 88.02 345.017 L 88.02 342.02 L 94.01 342.02 L 94.01 345.017 L 94.013 345.02 L 100.017 345.02 L 100.02 345.017 L 100.02 342.02 L 106.01 342.02 L 106.01 345.017 L 106.013 345.02 L 112.017 345.02 L 112.02 345.017 L 112.02 342.02 L 118.01 342.02 L 118.01 345.017 L 118.013 345.02 L 124.017 345.02 L 124.02 345.017 L 124.02 342.02 L 130.01 342.02 L 130.01 345.017 L 130.013 345.02 L 136.017 345.02 L 136.02 345.017 L 136.02 342.02 L 142.01 342.02 L 142.01 345.017 L 142.013 345.02 L 148.017 345.02 L 148.02 345.017 L 148.02 342.02 L 154.01 342.02 L 154.01 345.017 L 154.013 345.02 L 160.017 345.02 L 160.02 345.017 L 160.02 342.02 L 166.01 342.02 L 166.01 345.017 L 166.013 345.02 L 172.017 345.02 L 172.02 345.017 L 172.02 342.02 L 178.01 342.02 L 178.01 345.017 L 178.013 345.02 L 184.017 345.02 L 184.02 345.017 L 184.02 342.02 L 190.01 342.02 L 190.01 345.017 L 190.013 345.02 L 196.017 345.02 L 196.02 345.017 L 196.02 342.02 L 202.01 342.02 L 202.01 345.017 L 202.013 345.02 L 208.017 345.02 L 208.02 345.017 L 208.02 342.02 L 214.01 342.02 L 214.01 345.017 L 214.013 345.02 L 220.017 345.02 L 220.02 345.017 L 220.02 342.02 L 226.01 342.02 L 226.01 345.017 L 226.013 345.02 L 233.517 345.02 L 233.52 345.017 L 233.52 337.02 L 236.517 337.02 L 236.52 337.017 L 236.52 331.013 L 236.517 331.01 L 233.52 331.01 L 233.52 325.02 L 236.517 325.02 L 236.52 325.017 L 236.52 319.013 L 236.517 319.01 L 233.52 319.01 L 233.52 313.02 L 236.517 313.02 L 236.52 313.017 L 236.52 307.013 L 236.517 307.01 L 233.52 307.01 L 233.52 299.013 L 233.517 299.01 L 226.013 299.01 L 226.01 299.013 L 226.01 302.01 L 220.02 302.01 L 220.02 299.013 L 220.017 299.01 L 214.013 299.01 L 214.01 299.013 L 214.01 302.01 L 208.02 302.01 L 208.02 299.013 L 208.017 299.01 L 202.013 299.01 L 202.01 299.013 L 202.01 302.01 L 196.02 302.01 L 196.02 299.013 L 196.017 299.01 L 190.013 299.01 L 190.01 299.013 L 190.01 302.01 L 184.02 302.01 L 184.02 299.013 L 184.017 299.01 L 178.013 299.01 L 178.01 299.013 L 178.01 302.01 L 172.02 302.01 L 172.02 299.013 L 172.017 299.01 L 166.013 299.01 L 166.01 299.013 L 166.01 302.01 L 160.02 302.01 L 160.02 299.013 L 160.017 299.01 L 154.013 299.01 L 154.01 299.013 L 154.01 302.01 L 148.02 302.01 L 148.02 299.013 L 148.017 299.01 L 142.013 299.01 L 142.01 299.013 L 142.01 302.01 L 136.02 302.01 L 136.02 299.013 L 136.017 299.01 L 130.013 299.01 L 130.01 299.013 L 130.01 302.01 L 124.02 302.01 L 124.02 299.013 L 124.017 299.01 L 118.013 299.01 L 118.01 299.013 L 118.01 302.01 L 112.02 302.01 L 112.02 299.013 L 112.017 299.01 L 106.013 299.01 L 106.01 299.013 L 106.01 302.01 L 100.02 302.01 L 100.02 299.013 L 100.017 299.01 L 94.013 299.01 L 94.01 299.013 L 94.01 302.01 L 88.02 302.01 L 88.02 299.013 L 88.017 299.01 L 82.013 299.01 L 82.01 299.013 L 82.01 302.01 L 76.02 302.01 L 76.02 299.013 L 76.017 299.01 L 68.513 299.01 L 68.51 299.013 L 68.51 307.01 L 65.513 307.01 L 65.51 307.013 L 65.51 313.017 L 65.513 313.02 L 68.51 313.02 L 68.51 319.01 L 65.513 319.01 L 65.51 319.013 L 65.51 325.017 L 65.513 325.02 L 68.51 325.02 L 68.51 331.01 L 65.513 331.01 L 65.51 331.013 L 65.51 337.017 L 65.513 337.02 L 68.51 337.02 L 68.51 345.017 L 68.513 345.02 L 76.017 345.02 L 76.02 345.017 Z" id="left_outsideCutPath" stroke="#FF0000" stroke-width="0.1" style="stroke:#FF0000;stroke-width:0.1" vector-effect="non-scaling-stroke"/><path d="M 154.288 320.566 L 154.288 321.145 L 153.035 321.145 L 153.035 325.49 L 152.289 325.49 L 152.289 321.145 L 151.408 321.145 L 151.408 320.808 L 152.289 320.539 L 152.289 320.265 A 3.023 3.023 0 0 1 152.359 319.58 Q 152.578 318.645 153.471 318.484 A 2.267 2.267 0 0 1 153.875 318.45 A 2.402 2.402 0 0 1 154.215 318.476 Q 154.38 318.499 154.564 318.545 A 4.828 4.828 0 0 1 154.792 318.607 L 154.598 319.204 A 3.622 3.622 0 0 0 154.317 319.125 Q 154.174 319.092 154.049 319.077 A 1.604 1.604 0 0 0 153.861 319.065 A 1.006 1.006 0 0 0 153.619 319.093 A 0.646 0.646 0 0 0 153.237 319.346 A 0.863 0.863 0 0 0 153.123 319.576 Q 153.035 319.838 153.035 320.247 L 153.035 320.566 L 154.288 320.566 Z M 150.797 322.691 L 150.797 323.163 L 147.405 323.163 A 2.994 2.994 0 0 0 147.457 323.664 Q 147.511 323.937 147.619 324.153 A 1.4 1.4 0 0 0 147.843 324.479 A 1.355 1.355 0 0 0 148.554 324.88 A 2.054 2.054 0 0 0 149.013 324.929 A 3.939 3.939 0 0 0 150.489 324.636 A 4.514 4.514 0 0 0 150.586 324.596 L 150.586 325.261 A 4.478 4.478 0 0 1 150.178 325.415 A 3.424 3.424 0 0 1 149.838 325.506 A 3.131 3.131 0 0 1 149.527 325.554 Q 149.374 325.57 149.201 325.577 A 6.076 6.076 0 0 1 148.986 325.58 A 2.898 2.898 0 0 1 148.261 325.494 A 2.052 2.052 0 0 1 147.263 324.915 A 2.195 2.195 0 0 1 146.738 323.951 Q 146.647 323.609 146.634 323.203 A 4.26 4.26 0 0 1 146.632 323.069 A 3.917 3.917 0 0 1 146.704 322.292 Q 146.8 321.82 147.021 321.453 A 2.209 2.209 0 0 1 147.218 321.177 Q 147.805 320.476 148.793 320.476 A 2.272 2.272 0 0 1 149.433 320.562 A 1.729 1.729 0 0 1 150.258 321.085 A 2.085 2.085 0 0 1 150.73 322.038 A 3.036 3.036 0 0 1 150.797 322.691 Z M 157.451 324.875 L 157.451 325.445 A 0.734 0.734 0 0 1 157.364 325.48 Q 157.256 325.516 157.094 325.542 Q 156.874 325.578 156.695 325.58 A 1.912 1.912 0 0 1 156.67 325.58 A 1.948 1.948 0 0 1 156.096 325.503 Q 155.465 325.308 155.299 324.623 A 2.344 2.344 0 0 1 155.241 324.075 L 155.241 321.145 L 154.535 321.145 L 154.535 320.786 L 155.241 320.476 L 155.555 319.425 L 155.987 319.425 L 155.987 320.566 L 157.416 320.566 L 157.416 321.145 L 155.987 321.145 L 155.987 324.044 A 1.502 1.502 0 0 0 156.008 324.307 Q 156.034 324.452 156.091 324.567 A 0.723 0.723 0 0 0 156.198 324.727 A 0.693 0.693 0 0 0 156.624 324.953 A 0.997 0.997 0 0 0 156.777 324.965 Q 156.975 324.965 157.159 324.935 A 4.035 4.035 0 0 0 157.267 324.917 Q 157.377 324.896 157.451 324.875 Z M 145.324 318.499 L 145.324 325.49 L 144.579 325.49 L 144.579 318.499 L 145.324 318.499 Z M 147.423 322.556 L 149.997 322.556 Q 149.997 322.079 149.853 321.753 A 1.154 1.154 0 0 0 149.683 321.476 A 1.022 1.022 0 0 0 149.067 321.125 A 1.533 1.533 0 0 0 148.784 321.101 A 1.47 1.47 0 0 0 148.359 321.159 A 1.136 1.136 0 0 0 147.838 321.487 A 1.473 1.473 0 0 0 147.545 321.981 Q 147.452 322.236 147.423 322.556 Z" id="left_labelLayer" stroke="#777777" fill="#777777" style="stroke:#777777;fill:#777777" vector-effect="non-scaling-stroke"/><path d="M 255.78 345.017 L 255.78 342.02 L 261.77 342.02 L 261.77 345.017 L 261.773 345.02 L 267.777 345.02 L 267.78 345.017 L 267.78 342.02 L 273.77 342.02 L 273.77 345.017 L 273.773 345.02 L 279.777 345.02 L 279.78 345.017 L 279.78 342.02 L 285.77 342.02 L 285.77 345.017 L 285.773 345.02 L 291.777 345.02 L 291.78 345.017 L 291.78 342.02 L 299.027 342.02 L 299.03 342.017 L 299.03 334.52 L 302.027 334.52 L 302.03 334.517 L 302.03 328.513 L 302.027 328.51 L 299.03 328.51 L 299.03 322.52 L 302.027 322.52 L 302.03 322.517 L 302.03 316.513 L 302.027 316.51 L 299.03 316.51 L 299.03 310.52 L 302.027 310.52 L 302.03 310.517 L 302.03 304.513 L 302.027 304.51 L 299.03 304.51 L 299.03 298.52 L 302.027 298.52 L 302.03 298.517 L 302.03 292.513 L 302.027 292.51 L 299.03 292.51 L 299.03 286.52 L 302.027 286.52 L 302.03 286.517 L 302.03 280.513 L 302.027 280.51 L 299.03 280.51 L 299.03 274.52 L 302.027 274.52 L 302.03 274.517 L 302.03 268.513 L 302.027 268.51 L 299.03 268.51 L 299.03 262.52 L 302.027 262.52 L 302.03 262.517 L 302.03 256.513 L 302.027 256.51 L 299.03 256.51 L 299.03 250.52 L 302.027 250.52 L 302.03 250.517 L 302.03 244.513 L 302.027 244.51 L 299.03 244.51 L 299.03 238.52 L 302.027 238.52 L 302.03 238.517 L 302.03 232.513 L 302.027 232.51 L 299.03 232.51 L 299.03 226.52 L 302.027 226.52 L 302.03 226.517 L 302.03 220.513 L 302.027 220.51 L 299.03 220.51 L 299.03 214.52 L 302.027 214.52 L 302.03 214.517 L 302.03 208.513 L 302.027 208.51 L 299.03 208.51 L 299.03 202.52 L 302.027 202.52 L 302.03 202.517 L 302.03 196.513 L 302.027 196.51 L 299.03 196.51 L 299.03 190.52 L 302.027 190.52 L 302.03 190.517 L 302.03 184.513 L 302.027 184.51 L 299.03 184.51 L 299.03 177.013 L 299.027 177.01 L 291.78 177.01 L 291.78 174.013 L 291.777 174.01 L 285.773 174.01 L 285.77 174.013 L 285.77 177.01 L 279.78 177.01 L 279.78 174.013 L 279.777 174.01 L 273.773 174.01 L 273.77 174.013 L 273.77 177.01 L 267.78 177.01 L 267.78 174.013 L 267.777 174.01 L 261.773 174.01 L 261.77 174.013 L 261.77 177.01 L 255.78 177.01 L 255.78 174.013 L 255.777 174.01 L 249.773 174.01 L 249.77 174.013 L 249.77 177.01 L 242.523 177.01 L 242.52 177.013 L 242.52 184.51 L 239.523 184.51 L 239.52 184.513 L 239.52 190.517 L 239.523 190.52 L 242.52 190.52 L 242.52 196.51 L 239.523 196.51 L 239.52 196.513 L 239.52 202.517 L 239.523 202.52 L 242.52 202.52 L 242.52 208.51 L 239.523 208.51 L 239.52 208.513 L 239.52 214.517 L 239.523 214.52 L 242.52 214.52 L 242.52 220.51 L 239.523 220.51 L 239.52 220.513 L 239.52 226.517 L 239.523 226.52 L 242.52 226.52 L 242.52 232.51 L 239.523 232.51 L 239.52 232.513 L 239.52 238.517 L 239.523 238.52 L 242.52 238.52 L 242.52 244.51 L 239.523 244.51 L 239.52 244.513 L 239.52 250.517 L 239.523 250.52 L 242.52 250.52 L 242.52 256.51 L 239.523 256.51 L 239.52 256.513 L 239.52 262.517 L 239.523 262.52 L 242.52 262.52 L 242.52 268.51 L 239.523 268.51 L 239.52 268.513 L 239.52 274.517 L 239.523 274.52 L 242.52 274.52 L 242.52 280.51 L 239.523 280.51 L 239.52 280.513 L 239.52 286.517 L 239.523 286.52 L 242.52 286.52 L 242.52 292.51 L 239.523 292.51 L 239.52 292.513 L 239.52 298.517 L 239.523 298.52 L 242.52 298.52 L 242.52 304.51 L 239.523 304.51 L 239.52 304.513 L 239.52 310.517 L 239.523 310.52 L 242.52 310.52 L 242.52 316.51 L 239.523 316.51 L 239.52 316.513 L 239.52 322.517 L 239.523 322.52 L 242.52 322.52 L 242.52 328.51 L 239.523 328.51 L 239.52 328.513 L 239.52 334.517 L 239.523 334.52 L 242.52 334.52 L 242.52 342.017 L 242.523 342.02 L 249.77 342.02 L 249.77 345.017 L 249.773 345.02 L 255.777 345.02 L 255.78 345.017 Z" id="top_outsideCutPath" stroke="#FF0000" stroke-width="0.1" style="stroke:#FF0000;stroke-width:0.1" vector-effect="non-scaling-stroke"/><path d="M 275.268 261.273 L 275.195 261.273 Q 275.268 261.859 275.268 262.384 L 275.268 265.137 L 274.255 265.137 L 274.255 255.443 L 275.079 255.443 L 275.219 256.359 L 275.268 256.359 A 2.728 2.728 0 0 1 275.662 255.911 A 2.109 2.109 0 0 1 276.177 255.565 Q 276.696 255.321 277.368 255.321 A 3.106 3.106 0 0 1 278.245 255.439 A 2.296 2.296 0 0 1 279.422 256.231 A 3.043 3.043 0 0 1 279.941 257.244 Q 280.075 257.681 280.121 258.207 A 6.599 6.599 0 0 1 280.145 258.782 A 5.941 5.941 0 0 1 280.067 259.782 Q 279.976 260.315 279.779 260.742 A 2.848 2.848 0 0 1 279.41 261.343 A 2.399 2.399 0 0 1 277.705 262.24 A 3.437 3.437 0 0 1 277.368 262.256 A 3.074 3.074 0 0 1 276.595 262.162 A 2.674 2.674 0 0 1 276.174 262.015 Q 275.634 261.774 275.268 261.273 Z M 265.366 261.298 L 265.366 262.073 A 0.997 0.997 0 0 1 265.248 262.12 Q 265.122 262.162 264.942 262.194 A 3.789 3.789 0 0 1 264.881 262.204 A 4.392 4.392 0 0 1 264.595 262.241 Q 264.44 262.256 264.304 262.256 A 2.647 2.647 0 0 1 263.524 262.151 Q 262.667 261.886 262.443 260.955 A 3.185 3.185 0 0 1 262.363 260.211 L 262.363 256.231 L 261.405 256.231 L 261.405 255.742 L 262.363 255.321 L 262.79 253.893 L 263.376 253.893 L 263.376 255.443 L 265.318 255.443 L 265.318 256.231 L 263.376 256.231 L 263.376 260.168 A 2.041 2.041 0 0 0 263.406 260.527 Q 263.468 260.876 263.663 261.096 A 0.941 0.941 0 0 0 264.242 261.404 A 1.354 1.354 0 0 0 264.451 261.42 A 3.328 3.328 0 0 0 264.938 261.385 A 3.071 3.071 0 0 0 264.97 261.38 Q 265.22 261.34 265.366 261.298 Z M 272.385 259.801 A 5.234 5.234 0 0 0 272.478 258.782 Q 272.478 257.189 271.651 256.255 A 2.653 2.653 0 0 0 270.419 255.461 A 3.405 3.405 0 0 0 269.42 255.321 A 3.936 3.936 0 0 0 268.713 255.382 A 2.68 2.68 0 0 0 267.149 256.234 A 2.8 2.8 0 0 0 266.805 256.711 Q 266.54 257.172 266.423 257.765 A 5.262 5.262 0 0 0 266.331 258.782 A 5.069 5.069 0 0 0 266.395 259.604 A 3.749 3.749 0 0 0 266.709 260.626 Q 267.088 261.413 267.784 261.835 A 2.822 2.822 0 0 0 268.431 262.123 A 3.254 3.254 0 0 0 269.377 262.256 A 3.935 3.935 0 0 0 270.064 262.198 A 2.702 2.702 0 0 0 271.654 261.337 A 2.827 2.827 0 0 0 271.991 260.875 Q 272.265 260.405 272.385 259.801 Z M 267.381 258.782 A 5.132 5.132 0 0 0 267.43 259.516 Q 267.484 259.888 267.597 260.189 A 2.126 2.126 0 0 0 267.894 260.736 A 1.661 1.661 0 0 0 268.975 261.373 A 2.517 2.517 0 0 0 269.401 261.407 A 2.354 2.354 0 0 0 270.022 261.33 A 1.638 1.638 0 0 0 270.912 260.739 A 2.175 2.175 0 0 0 271.251 260.079 Q 271.351 259.774 271.394 259.402 A 5.338 5.338 0 0 0 271.428 258.782 A 5.056 5.056 0 0 0 271.38 258.062 Q 271.327 257.695 271.216 257.398 A 2.086 2.086 0 0 0 270.912 256.844 Q 270.396 256.182 269.389 256.182 Q 268.394 256.182 267.888 256.835 A 2.095 2.095 0 0 0 267.562 257.464 Q 267.381 258.009 267.381 258.782 Z M 275.268 258.557 L 275.268 258.782 A 6.7 6.7 0 0 0 275.301 259.475 Q 275.393 260.354 275.738 260.8 A 1.47 1.47 0 0 0 276.484 261.303 Q 276.816 261.407 277.246 261.407 A 1.707 1.707 0 0 0 277.91 261.283 Q 278.292 261.123 278.566 260.758 A 2.02 2.02 0 0 0 278.604 260.705 A 2.45 2.45 0 0 0 278.94 259.989 Q 279.037 259.661 279.074 259.267 A 5.399 5.399 0 0 0 279.095 258.77 Q 279.095 257.949 278.884 257.379 A 2.148 2.148 0 0 0 278.604 256.85 A 1.576 1.576 0 0 0 277.451 256.194 A 2.18 2.18 0 0 0 277.221 256.182 A 2.92 2.92 0 0 0 276.676 256.229 Q 276.372 256.287 276.139 256.416 A 1.339 1.339 0 0 0 275.738 256.75 A 1.736 1.736 0 0 0 275.466 257.244 Q 275.276 257.763 275.268 258.557 Z" id="top_labelLayer" stroke="#777777" fill="#777777" style="stroke:#777777;fill:#777777" vector-effect="non-scaling-stroke"/><path d="M 10.26 296.007 L 10.26 293.01 L 16.25 293.01 L 16.25 296.007 L 16.253 296.01 L 22.257 296.01 L 22.26 296.007 L 22.26 293.01 L 28.25 293.01 L 28.25 296.007 L 28.253 296.01 L 34.257 296.01 L 34.26 296.007 L 34.26 293.01 L 40.25 293.01 L 40.25 296.007 L 40.253 296.01 L 46.257 296.01 L 46.26 296.007 L 46.26 293.01 L 52.25 293.01 L 52.25 296.007 L 52.253 296.01 L 62.507 296.01 L 62.51 296.007 L 62.51 288.003 L 62.507 288 L 59.51 288 L 59.51 282.01 L 62.507 282.01 L 62.51 282.007 L 62.51 276.003 L 62.507 276 L 59.51 276 L 59.51 270.01 L 62.507 270.01 L 62.51 270.007 L 62.51 264.003 L 62.507 264 L 59.51 264 L 59.51 258.01 L 62.507 258.01 L 62.51 258.007 L 62.51 250.003 L 62.507 250 L 52.253 250 L 52.25 250.003 L 52.25 253 L 46.26 253 L 46.26 250.003 L 46.257 250 L 40.253 250 L 40.25 250.003 L 40.25 253 L 34.26 253 L 34.26 250.003 L 34.257 250 L 28.253 250 L 28.25 250.003 L 28.25 253 L 22.26 253 L 22.26 250.003 L 22.257 250 L 16.253 250 L 16.25 250.003 L 16.25 253 L 10.26 253 L 10.26 250.003 L 10.257 250 L 0.003 250 L 0 250.003 L 0 258.007 L 0.003 258.01 L 3 258.01 L 3 264 L 0.003 264 L 0 264.003 L 0 270.007 L 0.003 270.01 L 3 270.01 L 3 276 L 0.003 276 L 0 276.003 L 0 282.007 L 0.003 282.01 L 3 282.01 L 3 288 L 0.003 288 L 0 288.003 L 0 296.007 L 0.003 296.01 L 10.257 296.01 L 10.26 296.007 Z" id="back_outsideCutPath" stroke="#FF0000" stroke-width="0.1" style="stroke:#FF0000;stroke-width:0.1" vector-effect="non-scaling-stroke"/><path d="M 37.554 273.935 L 37.59 273.935 Q 37.784 273.661 38.179 273.216 L 39.77 271.531 L 40.655 271.531 L 38.66 273.629 L 40.794 276.456 L 39.891 276.456 L 38.152 274.128 L 37.59 274.614 L 37.59 276.456 L 36.853 276.456 L 36.853 269.464 L 37.59 269.464 L 37.59 273.171 Q 37.59 273.418 37.554 273.935 Z M 22.462 275.822 L 22.408 275.822 L 22.251 276.456 L 21.716 276.456 L 21.716 269.464 L 22.462 269.464 L 22.462 271.163 Q 22.462 271.733 22.426 272.187 L 22.462 272.187 Q 22.983 271.45 24.008 271.45 A 2.28 2.28 0 0 1 24.649 271.536 A 1.706 1.706 0 0 1 25.515 272.113 A 2.198 2.198 0 0 1 25.9 272.855 Q 25.995 273.161 26.031 273.527 A 4.787 4.787 0 0 1 26.052 273.989 A 4.373 4.373 0 0 1 25.994 274.725 Q 25.927 275.117 25.782 275.431 A 2.096 2.096 0 0 1 25.51 275.874 A 1.766 1.766 0 0 1 24.256 276.534 A 2.53 2.53 0 0 1 24.008 276.546 A 2.262 2.262 0 0 1 23.439 276.476 A 1.968 1.968 0 0 1 23.129 276.368 Q 22.731 276.191 22.462 275.822 Z M 30.936 276.456 L 30.383 276.456 L 30.235 275.755 L 30.199 275.755 Q 29.939 276.082 29.68 276.259 A 1.374 1.374 0 0 1 29.464 276.382 A 1.72 1.72 0 0 1 29.109 276.494 Q 28.858 276.546 28.55 276.546 A 2.289 2.289 0 0 1 28.084 276.501 Q 27.8 276.442 27.581 276.304 A 1.284 1.284 0 0 1 27.402 276.168 A 1.226 1.226 0 0 1 27.032 275.522 A 1.877 1.877 0 0 1 26.986 275.094 Q 26.986 273.603 29.372 273.531 L 30.208 273.504 L 30.208 273.198 A 2.142 2.142 0 0 0 30.187 272.888 Q 30.164 272.73 30.115 272.603 A 0.832 0.832 0 0 0 29.959 272.342 A 0.757 0.757 0 0 0 29.649 272.14 Q 29.524 272.095 29.371 272.077 A 1.843 1.843 0 0 0 29.161 272.066 Q 28.666 272.066 28.067 272.31 A 4.995 4.995 0 0 0 27.768 272.443 L 27.539 271.873 A 3.439 3.439 0 0 1 28.203 271.6 A 3.914 3.914 0 0 1 28.337 271.563 A 3.454 3.454 0 0 1 29.206 271.45 A 3.15 3.15 0 0 1 29.686 271.484 Q 30.212 271.566 30.511 271.841 A 1.181 1.181 0 0 1 30.816 272.311 Q 30.936 272.637 30.936 273.095 L 30.936 276.456 Z M 35.757 271.697 L 35.528 272.331 A 3.318 3.318 0 0 0 35.168 272.211 A 3.963 3.963 0 0 0 34.989 272.167 A 3.081 3.081 0 0 0 34.754 272.124 Q 34.64 272.107 34.538 272.103 A 1.653 1.653 0 0 0 34.472 272.102 Q 33.139 272.102 32.99 273.612 A 4.121 4.121 0 0 0 32.971 274.016 Q 32.971 274.612 33.129 275.025 A 1.547 1.547 0 0 0 33.338 275.409 A 1.185 1.185 0 0 0 34.105 275.867 A 1.805 1.805 0 0 0 34.423 275.894 A 3.122 3.122 0 0 0 35.284 275.769 A 3.855 3.855 0 0 0 35.685 275.629 L 35.685 276.289 A 2.122 2.122 0 0 1 35.166 276.473 Q 34.926 276.526 34.648 276.54 A 4.09 4.09 0 0 1 34.441 276.546 A 2.788 2.788 0 0 1 33.763 276.468 A 1.89 1.89 0 0 1 32.785 275.887 A 2.157 2.157 0 0 1 32.336 275.063 Q 32.237 274.736 32.209 274.343 A 4.51 4.51 0 0 1 32.199 274.025 A 4.115 4.115 0 0 1 32.262 273.277 Q 32.34 272.859 32.511 272.53 A 2.056 2.056 0 0 1 32.794 272.115 A 1.931 1.931 0 0 1 33.851 271.507 A 2.928 2.928 0 0 1 34.49 271.441 Q 34.845 271.441 35.2 271.518 Q 35.555 271.594 35.757 271.697 Z M 23.087 272.26 A 0.992 0.992 0 0 0 22.799 272.513 Q 22.503 272.898 22.467 273.746 A 5.747 5.747 0 0 0 22.462 273.989 A 4.932 4.932 0 0 0 22.486 274.499 Q 22.54 275.013 22.711 275.326 A 1.125 1.125 0 0 0 22.808 275.474 A 1.082 1.082 0 0 0 23.357 275.844 Q 23.601 275.921 23.918 275.921 A 1.487 1.487 0 0 0 24.34 275.864 A 1.073 1.073 0 0 0 24.942 275.42 Q 25.279 274.919 25.279 273.98 Q 25.279 273.018 24.942 272.547 A 1.088 1.088 0 0 0 24.25 272.108 A 1.725 1.725 0 0 0 23.9 272.075 Q 23.403 272.075 23.087 272.26 Z M 30.19 274.479 L 30.19 274.034 L 29.444 274.065 A 5.477 5.477 0 0 0 29.007 274.097 Q 28.575 274.147 28.305 274.267 A 1.146 1.146 0 0 0 28.161 274.342 A 0.796 0.796 0 0 0 27.782 274.919 A 1.178 1.178 0 0 0 27.768 275.103 Q 27.768 275.459 27.958 275.665 A 0.664 0.664 0 0 0 28.013 275.719 Q 28.225 275.901 28.582 275.926 A 1.677 1.677 0 0 0 28.698 275.93 A 2.054 2.054 0 0 0 29.142 275.885 Q 29.532 275.799 29.792 275.548 A 1.249 1.249 0 0 0 30.141 274.924 Q 30.19 274.72 30.19 274.479 Z" id="back_labelLayer" stroke="#777777" fill="#777777" style="stroke:#777777;fill:#777777" vector-effect="non-scaling-stroke"/><path d="M 76.02 296.007 L 76.02 293.01 L 82.01 293.01 L 82.01 296.007 L 82.013 296.01 L 88.017 296.01 L 88.02 296.007 L 88.02 293.01 L 94.01 293.01 L 94.01 296.007 L 94.013 296.01 L 100.017 296.01 L 100.02 296.007 L 100.02 293.01 L 106.01 293.01 L 106.01 296.007 L 106.013 296.01 L 112.017 296.01 L 112.02 296.007 L 112.02 293.01 L 118.01 293.01 L 118.01 296.007 L 118.013 296.01 L 124.017 296.01 L 124.02 296.007 L 124.02 293.01 L 130.01 293.01 L 130.01 296.007 L 130.013 296.01 L 136.017 296.01 L 136.02 296.007 L 136.02 293.01 L 142.01 293.01 L 142.01 296.007 L 142.013 296.01 L 148.017 296.01 L 148.02 296.007 L 148.02 293.01 L 154.01 293.01 L 154.01 296.007 L 154.013 296.01 L 160.017 296.01 L 160.02 296.007 L 160.02 293.01 L 166.01 293.01 L 166.01 296.007 L 166.013 296.01 L 172.017 296.01 L 172.02 296.007 L 172.02 293.01 L 178.01 293.01 L 178.01 296.007 L 178.013 296.01 L 184.017 296.01 L 184.02 296.007 L 184.02 293.01 L 190.01 293.01 L 190.01 296.007 L 190.013 296.01 L 196.017 296.01 L 196.02 296.007 L 196.02 293.01 L 202.01 293.01 L 202.01 296.007 L 202.013 296.01 L 208.017 296.01 L 208.02 296.007 L 208.02 293.01 L 214.01 293.01 L 214.01 296.007 L 214.013 296.01 L 220.017 296.01 L 220.02 296.007 L 220.02 293.01 L 226.01 293.01 L 226.01 296.007 L 226.013 296.01 L 233.517 296.01 L 233.52 296.007 L 233.52 288.01 L 236.517 288.01 L 236.52 288.007 L 236.52 282.003 L 236.517 282 L 233.52 282 L 233.52 276.01 L 236.517 276.01 L 236.52 276.007 L 236.52 270.003 L 236.517 270 L 233.52 270 L 233.52 264.01 L 236.517 264.01 L 236.52 264.007 L 236.52 258.003 L 236.517 258 L 233.52 258 L 233.52 250.003 L 233.517 250 L 226.013 250 L 226.01 250.003 L 226.01 253 L 220.02 253 L 220.02 250.003 L 220.017 250 L 214.013 250 L 214.01 250.003 L 214.01 253 L 208.02 253 L 208.02 250.003 L 208.017 250 L 202.013 250 L 202.01 250.003 L 202.01 253 L 196.02 253 L 196.02 250.003 L 196.017 250 L 190.013 250 L 190.01 250.003 L 190.01 253 L 184.02 253 L 184.02 250.003 L 184.017 250 L 178.013 250 L 178.01 250.003 L 178.01 253 L 172.02 253 L 172.02 250.003 L 172.017 250 L 166.013 250 L 166.01 250.003 L 166.01 253 L 160.02 253 L 160.02 250.003 L 160.017 250 L 154.013 250 L 154.01 250.003 L 154.01 253 L 148.02 253 L 148.02 250.003 L 148.017 250 L 142.013 250 L 142.01 250.003 L 142.01 253 L 136.02 253 L 136.02 250.003 L 136.017 250 L 130.013 250 L 130.01 250.003 L 130.01 253 L 124.02 253 L 124.02 250.003 L 124.017 250 L 118.013 250 L 118.01 250.003 L 118.01 253 L 112.02 253 L 112.02 250.003 L 112.017 250 L 106.013 250 L 106.01 250.003 L 106.01 253 L 100.02 253 L 100.02 250.003 L 100.017 250 L 94.013 250 L 94.01 250.003 L 94.01 253 L 88.02 253 L 88.02 250.003 L 88.017 250 L 82.013 250 L 82.01 250.003 L 82.01 253 L 76.02 253 L 76.02 250.003 L 76.017 250 L 68.513 250 L 68.51 250.003 L 68.51 258 L 65.513 258 L 65.51 258.003 L 65.51 264.007 L 65.513 264.01 L 68.51 264.01 L 68.51 270 L 65.513 270 L 65.51 270.003 L 65.51 276.007 L 65.513 276.01 L 68.51 276.01 L 68.51 282 L 65.513 282 L 65.51 282.003 L 65.51 288.007 L 65.513 288.01 L 68.51 288.01 L 68.51 296.007 L 68.513 296.01 L 76.017 296.01 L 76.02 296.007 Z" id="right_outsideCutPath" stroke="#FF0000" stroke-width="0.1" style="stroke:#FF0000;stroke-width:0.1" vector-effect="non-scaling-stroke"/><path d="M 156.737 275.395 L 155.991 275.395 L 155.991 272.21 A 2.108 2.108 0 0 0 155.967 271.879 Q 155.91 271.52 155.717 271.311 Q 155.495 271.071 155.07 271.025 A 1.977 1.977 0 0 0 154.859 271.015 Q 154.082 271.015 153.724 271.437 A 1.241 1.241 0 0 0 153.514 271.81 Q 153.367 272.205 153.367 272.821 L 153.367 275.395 L 152.621 275.395 L 152.621 268.404 L 153.367 268.404 L 153.367 270.52 A 6.71 6.71 0 0 1 153.363 270.778 Q 153.358 270.899 153.349 271.003 A 2.918 2.918 0 0 1 153.331 271.154 L 153.376 271.154 A 1.49 1.49 0 0 1 153.898 270.651 A 1.82 1.82 0 0 1 154.003 270.594 Q 154.41 270.39 154.931 270.39 Q 155.525 270.39 155.924 270.576 A 1.344 1.344 0 0 1 156.285 270.819 Q 156.636 271.152 156.715 271.791 A 3.225 3.225 0 0 1 156.737 272.183 L 156.737 275.395 Z M 149.907 270.471 L 151.61 270.471 L 151.61 270.943 L 150.698 271.05 Q 150.804 271.183 150.891 271.384 A 2.299 2.299 0 0 1 150.923 271.462 A 1.435 1.435 0 0 1 151.008 271.804 A 1.843 1.843 0 0 1 151.022 272.034 A 1.71 1.71 0 0 1 150.943 272.565 A 1.383 1.383 0 0 1 150.527 273.189 Q 150.082 273.578 149.338 273.616 A 3.239 3.239 0 0 1 149.171 273.621 A 2.397 2.397 0 0 1 148.893 273.605 A 2.024 2.024 0 0 1 148.757 273.585 A 1.327 1.327 0 0 0 148.543 273.723 Q 148.433 273.812 148.369 273.914 A 0.561 0.561 0 0 0 148.281 274.218 A 0.387 0.387 0 0 0 148.301 274.345 Q 148.336 274.448 148.437 274.511 A 0.413 0.413 0 0 0 148.447 274.517 Q 148.581 274.595 148.87 274.61 A 2.837 2.837 0 0 0 149.018 274.614 L 149.889 274.614 A 3.053 3.053 0 0 1 150.353 274.646 Q 150.596 274.684 150.791 274.763 A 1.348 1.348 0 0 1 151.118 274.951 A 1.091 1.091 0 0 1 151.524 275.646 A 1.639 1.639 0 0 1 151.547 275.93 A 1.615 1.615 0 0 1 151.455 276.489 Q 151.306 276.896 150.917 277.16 A 1.772 1.772 0 0 1 150.891 277.177 A 2.237 2.237 0 0 1 150.315 277.438 Q 150.031 277.525 149.684 277.567 A 5.912 5.912 0 0 1 148.977 277.606 A 4.179 4.179 0 0 1 148.417 277.571 Q 147.848 277.494 147.488 277.247 A 1.189 1.189 0 0 1 147.105 276.831 Q 146.982 276.603 146.967 276.315 A 1.575 1.575 0 0 1 146.964 276.231 A 1.14 1.14 0 0 1 147.252 275.454 A 1.302 1.302 0 0 1 147.699 275.128 A 1.846 1.846 0 0 1 148.061 275.009 A 0.774 0.774 0 0 1 147.76 274.766 A 0.918 0.918 0 0 1 147.744 274.744 A 0.691 0.691 0 0 1 147.617 274.37 A 0.856 0.856 0 0 1 147.616 274.326 A 0.853 0.853 0 0 1 147.659 274.051 A 0.756 0.756 0 0 1 147.76 273.854 A 1.068 1.068 0 0 1 147.901 273.695 Q 147.976 273.625 148.072 273.556 A 2.343 2.343 0 0 1 148.214 273.463 A 1.308 1.308 0 0 1 147.645 273.009 A 1.621 1.621 0 0 1 147.591 272.929 A 1.542 1.542 0 0 1 147.355 272.186 A 1.882 1.882 0 0 1 147.351 272.066 A 2.155 2.155 0 0 1 147.408 271.556 A 1.418 1.418 0 0 1 147.836 270.819 Q 148.255 270.441 148.976 270.389 A 3.294 3.294 0 0 1 149.211 270.381 A 2.859 2.859 0 0 1 149.589 270.405 A 2.177 2.177 0 0 1 149.907 270.471 Z M 160.534 274.78 L 160.534 275.35 A 0.734 0.734 0 0 1 160.447 275.385 Q 160.339 275.421 160.177 275.447 Q 159.956 275.483 159.777 275.485 A 1.912 1.912 0 0 1 159.752 275.485 A 1.948 1.948 0 0 1 159.178 275.408 Q 158.547 275.213 158.382 274.528 A 2.344 2.344 0 0 1 158.323 273.98 L 158.323 271.05 L 157.618 271.05 L 157.618 270.691 L 158.323 270.381 L 158.638 269.33 L 159.069 269.33 L 159.069 270.471 L 160.498 270.471 L 160.498 271.05 L 159.069 271.05 L 159.069 273.949 A 1.502 1.502 0 0 0 159.091 274.212 Q 159.117 274.357 159.173 274.472 A 0.723 0.723 0 0 0 159.28 274.631 A 0.693 0.693 0 0 0 159.706 274.858 A 0.997 0.997 0 0 0 159.86 274.87 Q 160.057 274.87 160.242 274.84 A 4.035 4.035 0 0 0 160.349 274.822 Q 160.46 274.801 160.534 274.78 Z M 144.331 270.435 L 144.228 271.127 Q 143.923 271.059 143.689 271.059 Q 143.091 271.059 142.667 271.545 A 1.703 1.703 0 0 0 142.256 272.501 A 2.264 2.264 0 0 0 142.242 272.753 L 142.242 275.395 L 141.496 275.395 L 141.496 270.471 L 142.112 270.471 L 142.197 271.383 L 142.233 271.383 A 2.519 2.519 0 0 1 142.515 270.981 A 1.924 1.924 0 0 1 142.894 270.642 A 1.487 1.487 0 0 1 143.743 270.381 A 3.424 3.424 0 0 1 144.049 270.394 A 2.499 2.499 0 0 1 144.331 270.435 Z M 145.998 270.471 L 145.998 275.395 L 145.253 275.395 L 145.253 270.471 L 145.998 270.471 Z M 149.651 275.283 L 148.757 275.283 A 1.715 1.715 0 0 0 148.448 275.309 Q 148.273 275.341 148.134 275.413 A 0.874 0.874 0 0 0 147.966 275.526 A 0.786 0.786 0 0 0 147.708 275.971 A 1.193 1.193 0 0 0 147.683 276.222 Q 147.683 276.622 148.02 276.829 Q 148.356 277.034 148.98 277.035 A 3.917 3.917 0 0 0 148.986 277.035 A 5.014 5.014 0 0 0 149.476 277.013 Q 149.967 276.965 150.275 276.811 A 1.239 1.239 0 0 0 150.377 276.755 A 1.088 1.088 0 0 0 150.629 276.543 A 0.815 0.815 0 0 0 150.829 275.993 Q 150.829 275.593 150.581 275.438 A 0.708 0.708 0 0 0 150.414 275.365 Q 150.148 275.283 149.651 275.283 Z M 148.088 272.048 A 1.456 1.456 0 0 0 148.118 272.353 Q 148.158 272.542 148.254 272.684 A 0.798 0.798 0 0 0 148.38 272.83 A 0.964 0.964 0 0 0 148.768 273.04 Q 148.915 273.083 149.092 273.092 A 1.921 1.921 0 0 0 149.193 273.095 A 1.625 1.625 0 0 0 149.618 273.044 Q 150.105 272.912 150.236 272.434 A 1.511 1.511 0 0 0 150.285 272.034 A 1.604 1.604 0 0 0 150.23 271.595 Q 150.039 270.925 149.18 270.925 A 1.565 1.565 0 0 0 148.861 270.955 Q 148.665 270.996 148.516 271.091 A 0.859 0.859 0 0 0 148.371 271.208 Q 148.131 271.448 148.094 271.886 A 1.962 1.962 0 0 0 148.088 272.048 Z M 145.315 268.761 A 0.349 0.349 0 0 0 145.238 268.871 Q 145.19 268.977 145.19 269.136 A 0.881 0.881 0 0 0 145.193 269.221 Q 145.201 269.296 145.222 269.357 A 0.385 0.385 0 0 0 145.315 269.512 A 0.418 0.418 0 0 0 145.467 269.608 A 0.474 0.474 0 0 0 145.63 269.635 A 0.435 0.435 0 0 0 145.94 269.512 A 0.364 0.364 0 0 0 146.011 269.417 Q 146.044 269.356 146.058 269.278 A 0.772 0.772 0 0 0 146.07 269.136 A 0.853 0.853 0 0 0 146.067 269.056 Q 146.048 268.864 145.94 268.763 A 0.439 0.439 0 0 0 145.63 268.642 A 0.569 0.569 0 0 0 145.592 268.643 A 0.431 0.431 0 0 0 145.315 268.761 Z" id="right_labelLayer" stroke="#777777" fill="#777777" style="stroke:#777777;fill:#777777" vector-effect="non-scaling-stroke"/><path d="M 255.78 171.007 L 255.78 168.01 L 261.77 168.01 L 261.77 171.007 L 261.773 171.01 L 267.777 171.01 L 267.78 171.007 L 267.78 168.01 L 273.77 168.01 L 273.77 171.007 L 273.773 171.01 L 279.777 171.01 L 279.78 171.007 L 279.78 168.01 L 285.77 168.01 L 285.77 171.007 L 285.773 171.01 L 291.777 171.01 L 291.78 171.007 L 291.78 168.01 L 299.027 168.01 L 299.03 168.007 L 299.03 160.51 L 302.027 160.51 L 302.03 160.507 L 302.03 154.503 L 302.027 154.5 L 299.03 154.5 L 299.03 148.51 L 302.027 148.51 L 302.03 148.507 L 302.03 142.503 L 302.027 142.5 L 299.03 142.5 L 299.03 136.51 L 302.027 136.51 L 302.03 136.507 L 302.03 130.503 L 302.027 130.5 L 299.03 130.5 L 299.03 124.51 L 302.027 124.51 L 302.03 124.507 L 302.03 118.503 L 302.027 118.5 L 299.03 118.5 L 299.03 112.51 L 302.027 112.51 L 302.03 112.507 L 302.03 106.503 L 302.027 106.5 L 299.03 106.5 L 299.03 100.51 L 302.027 100.51 L 302.03 100.507 L 302.03 94.503 L 302.027 94.5 L 299.03 94.5 L 299.03 88.51 L 302.027 88.51 L 302.03 88.507 L 302.03 82.503 L 302.027 82.5 L 299.03 82.5 L 299.03 76.51 L 302.027 76.51 L 302.03 76.507 L 302.03 70.503 L 302.027 70.5 L 299.03 70.5 L 299.03 64.51 L 302.027 64.51 L 302.03 64.507 L 302.03 58.503 L 302.027 58.5 L 299.03 58.5 L 299.03 52.51 L 302.027 52.51 L 302.03 52.507 L 302.03 46.503 L 302.027 46.5 L 299.03 46.5 L 299.03 40.51 L 302.027 40.51 L 302.03 40.507 L 302.03 34.503 L 302.027 34.5 L 299.03 34.5 L 299.03 28.51 L 302.027 28.51 L 302.03 28.507 L 302.03 22.503 L 302.027 22.5 L 299.03 22.5 L 299.03 16.51 L 302.027 16.51 L 302.03 16.507 L 302.03 10.503 L 302.027 10.5 L 299.03 10.5 L 299.03 3.003 L 299.027 3 L 291.78 3 L 291.78 0.003 L 291.777 0 L 285.773 0 L 285.77 0.003 L 285.77 3 L 279.78 3 L 279.78 0.003 L 279.777 0 L 273.773 0 L 273.77 0.003 L 273.77 3 L 267.78 3 L 267.78 0.003 L 267.777 0 L 261.773 0 L 261.77 0.003 L 261.77 3 L 255.78 3 L 255.78 0.003 L 255.777 0 L 249.773 0 L 249.77 0.003 L 249.77 3 L 242.523 3 L 242.52 3.003 L 242.52 10.5 L 239.523 10.5 L 239.52 10.503 L 239.52 16.507 L 239.523 16.51 L 242.52 16.51 L 242.52 22.5 L 239.523 22.5 L 239.52 22.503 L 239.52 28.507 L 239.523 28.51 L 242.52 28.51 L 242.52 34.5 L 239.523 34.5 L 239.52 34.503 L 239.52 40.507 L 239.523 40.51 L 242.52 40.51 L 242.52 46.5 L 239.523 46.5 L 239.52 46.503 L 239.52 52.507 L 239.523 52.51 L 242.52 52.51 L 242.52 58.5 L 239.523 58.5 L 239.52 58.503 L 239.52 64.507 L 239.523 64.51 L 242.52 64.51 L 242.52 70.5 L 239.523 70.5 L 239.52 70.503 L 239.52 76.507 L 239.523 76.51 L 242.52 76.51 L 242.52 82.5 L 239.523 82.5 L 239.52 82.503 L 239.52 88.507 L 239.523 88.51 L 242.52 88.51 L 242.52 94.5 L 239.523 94.5 L 239.52 94.503 L 239.52 100.507 L 239.523 100.51 L 242.52 100.51 L 242.52 106.5 L 239.523 106.5 L 239.52 106.503 L 239.52 112.507 L 239.523 112.51 L 242.52 112.51 L 242.52 118.5 L 239.523 118.5 L 239.52 118.503 L 239.52 124.507 L 239.523 124.51 L 242.52 124.51 L 242.52 130.5 L 239.523 130.5 L 239.52 130.503 L 239.52 136.507 L 239.523 136.51 L 242.52 136.51 L 242.52 142.5 L 239.523 142.5 L 239.52 142.503 L 239.52 148.507 L 239.523 148.51 L 242.52 148.51 L 242.52 154.5 L 239.523 154.5 L 239.52 154.503 L 239.52 160.507 L 239.523 160.51 L 242.52 160.51 L 242.52 168.007 L 242.523 168.01 L 249.77 168.01 L 249.77 171.007 L 249.773 171.01 L 255.777 171.01 L 255.78 171.007 Z" id="bottom_outsideCutPath" stroke="#FF0000" stroke-width="0.1" style="stroke:#FF0000;stroke-width:0.1" vector-effect="non-scaling-stroke"/><path d="M 291.341 90.193 L 290.328 90.193 L 290.328 85.841 Q 290.328 85.34 290.193 84.996 A 1.225 1.225 0 0 0 289.986 84.641 Q 289.644 84.241 288.924 84.241 Q 287.977 84.241 287.526 84.785 A 1.675 1.675 0 0 0 287.242 85.298 Q 287.074 85.769 287.074 86.457 L 287.074 90.193 L 286.061 90.193 L 286.061 85.841 Q 286.061 85.34 285.926 84.996 A 1.225 1.225 0 0 0 285.719 84.641 A 1.063 1.063 0 0 0 285.23 84.323 Q 285.054 84.266 284.839 84.248 A 2.373 2.373 0 0 0 284.65 84.241 A 2.517 2.517 0 0 0 284.13 84.292 Q 283.567 84.411 283.256 84.812 A 1.699 1.699 0 0 0 283.004 85.291 Q 282.813 85.83 282.813 86.683 L 282.813 90.193 L 281.8 90.193 L 281.8 83.503 L 282.624 83.503 L 282.789 84.418 L 282.837 84.418 Q 283.124 83.93 283.646 83.655 A 2.406 2.406 0 0 1 284.597 83.389 A 2.906 2.906 0 0 1 284.815 83.38 Q 286.384 83.38 286.866 84.516 L 286.915 84.516 A 2.116 2.116 0 0 1 287.712 83.725 A 2.542 2.542 0 0 1 287.782 83.686 A 2.565 2.565 0 0 1 288.723 83.4 A 3.198 3.198 0 0 1 289.076 83.38 A 3.522 3.522 0 0 1 289.715 83.435 Q 290.07 83.5 290.348 83.645 A 1.67 1.67 0 0 1 290.776 83.963 A 1.745 1.745 0 0 1 291.151 84.576 Q 291.252 84.846 291.299 85.183 A 4.648 4.648 0 0 1 291.341 85.828 L 291.341 90.193 Z M 251.222 89.332 L 251.149 89.332 L 250.935 90.193 L 250.209 90.193 L 250.209 80.695 L 251.222 80.695 L 251.222 83.002 A 21.127 21.127 0 0 1 251.211 83.716 Q 251.199 84.053 251.177 84.354 A 12.633 12.633 0 0 1 251.173 84.394 L 251.222 84.394 Q 251.93 83.393 253.322 83.393 A 3.097 3.097 0 0 1 254.194 83.509 A 2.318 2.318 0 0 1 255.37 84.293 A 2.986 2.986 0 0 1 255.894 85.302 Q 256.1 85.966 256.1 86.842 A 5.941 5.941 0 0 1 256.021 87.841 Q 255.93 88.374 255.734 88.802 A 2.848 2.848 0 0 1 255.364 89.403 A 2.399 2.399 0 0 1 253.659 90.299 A 3.437 3.437 0 0 1 253.322 90.315 A 3.074 3.074 0 0 1 252.55 90.221 A 2.674 2.674 0 0 1 252.129 90.074 Q 251.589 89.833 251.222 89.332 Z M 268.498 89.357 L 268.498 90.132 A 0.997 0.997 0 0 1 268.38 90.179 Q 268.254 90.221 268.073 90.253 A 3.789 3.789 0 0 1 268.013 90.263 A 4.392 4.392 0 0 1 267.726 90.301 Q 267.572 90.315 267.436 90.315 A 2.647 2.647 0 0 1 266.656 90.21 Q 265.799 89.946 265.574 89.014 A 3.185 3.185 0 0 1 265.495 88.27 L 265.495 84.29 L 264.536 84.29 L 264.536 83.802 L 265.495 83.38 L 265.922 81.952 L 266.508 81.952 L 266.508 83.503 L 268.449 83.503 L 268.449 84.29 L 266.508 84.29 L 266.508 88.227 A 2.041 2.041 0 0 0 266.537 88.586 Q 266.6 88.935 266.795 89.155 A 0.941 0.941 0 0 0 267.374 89.463 A 1.354 1.354 0 0 0 267.582 89.479 A 3.328 3.328 0 0 0 268.07 89.444 A 3.071 3.071 0 0 0 268.101 89.439 Q 268.351 89.4 268.498 89.357 Z M 272.912 89.357 L 272.912 90.132 A 0.997 0.997 0 0 1 272.793 90.179 Q 272.667 90.221 272.487 90.253 A 3.789 3.789 0 0 1 272.426 90.263 A 4.392 4.392 0 0 1 272.14 90.301 Q 271.986 90.315 271.849 90.315 A 2.647 2.647 0 0 1 271.069 90.21 Q 270.212 89.946 269.988 89.014 A 3.185 3.185 0 0 1 269.908 88.27 L 269.908 84.29 L 268.95 84.29 L 268.95 83.802 L 269.908 83.38 L 270.335 81.952 L 270.921 81.952 L 270.921 83.503 L 272.863 83.503 L 272.863 84.29 L 270.921 84.29 L 270.921 88.227 A 2.041 2.041 0 0 0 270.951 88.586 Q 271.013 88.935 271.208 89.155 A 0.941 0.941 0 0 0 271.787 89.463 A 1.354 1.354 0 0 0 271.996 89.479 A 3.328 3.328 0 0 0 272.483 89.444 A 3.071 3.071 0 0 0 272.515 89.439 Q 272.765 89.4 272.912 89.357 Z M 263.552 87.86 A 5.234 5.234 0 0 0 263.645 86.842 Q 263.645 85.248 262.818 84.314 A 2.653 2.653 0 0 0 261.586 83.52 A 3.405 3.405 0 0 0 260.587 83.38 A 3.936 3.936 0 0 0 259.88 83.441 A 2.68 2.68 0 0 0 258.316 84.293 A 2.8 2.8 0 0 0 257.972 84.77 Q 257.707 85.232 257.59 85.824 A 5.262 5.262 0 0 0 257.498 86.842 A 5.069 5.069 0 0 0 257.561 87.663 A 3.749 3.749 0 0 0 257.876 88.685 Q 258.255 89.473 258.951 89.894 A 2.822 2.822 0 0 0 259.598 90.182 A 3.254 3.254 0 0 0 260.544 90.315 A 3.935 3.935 0 0 0 261.231 90.258 A 2.702 2.702 0 0 0 262.821 89.396 A 2.827 2.827 0 0 0 263.157 88.934 Q 263.432 88.464 263.552 87.86 Z M 279.93 87.86 A 5.234 5.234 0 0 0 280.023 86.842 Q 280.023 85.248 279.196 84.314 A 2.653 2.653 0 0 0 277.965 83.52 A 3.405 3.405 0 0 0 276.965 83.38 A 3.936 3.936 0 0 0 276.258 83.441 A 2.68 2.68 0 0 0 274.694 84.293 A 2.8 2.8 0 0 0 274.35 84.77 Q 274.085 85.232 273.968 85.824 A 5.262 5.262 0 0 0 273.876 86.842 A 5.069 5.069 0 0 0 273.94 87.663 A 3.749 3.749 0 0 0 274.255 88.685 Q 274.633 89.473 275.329 89.894 A 2.822 2.822 0 0 0 275.977 90.182 A 3.254 3.254 0 0 0 276.922 90.315 A 3.935 3.935 0 0 0 277.609 90.258 A 2.702 2.702 0 0 0 279.199 89.396 A 2.827 2.827 0 0 0 279.536 88.934 Q 279.81 88.464 279.93 87.86 Z M 258.548 86.842 A 5.132 5.132 0 0 0 258.597 87.575 Q 258.65 87.947 258.764 88.248 A 2.126 2.126 0 0 0 259.06 88.795 A 1.661 1.661 0 0 0 260.142 89.432 A 2.517 2.517 0 0 0 260.568 89.467 A 2.354 2.354 0 0 0 261.189 89.389 A 1.638 1.638 0 0 0 262.079 88.798 A 2.175 2.175 0 0 0 262.418 88.138 Q 262.517 87.834 262.561 87.461 A 5.338 5.338 0 0 0 262.595 86.842 A 5.056 5.056 0 0 0 262.547 86.121 Q 262.494 85.754 262.383 85.457 A 2.086 2.086 0 0 0 262.079 84.904 Q 261.563 84.241 260.556 84.241 Q 259.561 84.241 259.054 84.894 A 2.095 2.095 0 0 0 258.729 85.524 Q 258.548 86.068 258.548 86.842 Z M 274.926 86.842 A 5.132 5.132 0 0 0 274.975 87.575 Q 275.029 87.947 275.142 88.248 A 2.126 2.126 0 0 0 275.439 88.795 A 1.661 1.661 0 0 0 276.52 89.432 A 2.517 2.517 0 0 0 276.947 89.467 A 2.354 2.354 0 0 0 277.568 89.389 A 1.638 1.638 0 0 0 278.457 88.798 A 2.175 2.175 0 0 0 278.796 88.138 Q 278.896 87.834 278.939 87.461 A 5.338 5.338 0 0 0 278.973 86.842 A 5.056 5.056 0 0 0 278.925 86.121 Q 278.872 85.754 278.761 85.457 A 2.086 2.086 0 0 0 278.457 84.904 Q 277.942 84.241 276.934 84.241 Q 275.939 84.241 275.433 84.894 A 2.095 2.095 0 0 0 275.107 85.524 Q 274.926 86.068 274.926 86.842 Z M 253.176 84.241 Q 252.138 84.241 251.68 84.836 Q 251.222 85.432 251.222 86.842 A 6.7 6.7 0 0 0 251.255 87.534 Q 251.347 88.413 251.692 88.859 A 1.47 1.47 0 0 0 252.438 89.363 Q 252.77 89.467 253.2 89.467 A 2.02 2.02 0 0 0 253.774 89.39 A 1.457 1.457 0 0 0 254.592 88.786 A 2.326 2.326 0 0 0 254.88 88.163 Q 255.05 87.607 255.05 86.83 A 5.987 5.987 0 0 0 255.014 86.147 Q 254.921 85.343 254.592 84.882 A 1.478 1.478 0 0 0 253.651 84.287 A 2.344 2.344 0 0 0 253.176 84.241 Z" id="bottom_labelLayer" stroke="#777777" fill="#777777" style="stroke:#777777;fill:#777777" vector-effect="non-scaling-stroke"/></g></svg>